<?xml version="1.0" standalone="no"?>
<!DOCTYPE svg PUBLIC "-//W3C//DTD SVG 20010904//EN"
 "http://www.w3.org/TR/2001/REC-SVG-20010904/DTD/svg10.dtd">
<svg version="1.0" xmlns="http://www.w3.org/2000/svg"
 width="1063.000000pt" height="709.000000pt" viewBox="0 0 1063.000000 709.000000"
 preserveAspectRatio="xMidYMid meet">
<metadata>
Created by potrace 1.13, written by Peter Selinger 2001-2015
</metadata>
<g transform="translate(0.000000,709.000000) scale(0.100000,-0.100000)"
fill="#000000" stroke="none">
<path d="M0 3545 l0 -3545 1280 0 1280 0 0 73 c0 39 -14 146 -31 237 -27 143
-31 188 -31 335 -1 168 12 265 53 410 18 63 25 22 32 -175 9 -305 67 -603 149
-771 l53 -108 980 0 980 -1 111 168 c121 183 187 287 254 402 24 41 90 146
147 232 57 87 103 162 103 166 0 5 14 33 30 63 l31 54 -7 -40 c-4 -22 -13 -56
-20 -75 -7 -19 -18 -69 -24 -110 -7 -41 -18 -102 -25 -135 -26 -113 -54 -310
-69 -485 -9 -96 -19 -190 -22 -208 l-5 -32 2691 0 2690 0 0 3545 0 3545 -5315
0 -5315 0 0 -3545z m3610 1648 c1 -16 2 -16 13 -3 16 19 47 25 47 8 0 -7 9
-19 20 -26 17 -10 20 -10 20 5 0 14 2 15 9 4 5 -8 16 -11 25 -8 9 4 16 3 16
-1 0 -14 79 -10 84 4 3 8 10 14 16 14 6 0 4 -11 -5 -24 -16 -23 -15 -24 4 -19
12 3 28 0 36 -7 8 -7 22 -10 30 -6 9 3 15 0 15 -9 0 -19 17 -19 36 0 18 17 44
20 44 4 0 -5 -5 -7 -11 -3 -7 4 -10 1 -7 -7 6 -15 10 -15 43 -4 18 6 18 5 -2
-13 -13 -11 -23 -22 -23 -24 0 -1 16 -3 35 -4 25 0 40 -7 52 -23 11 -16 18
-20 26 -12 16 16 44 13 59 -6 14 -19 75 -32 63 -14 -3 6 0 11 8 11 8 0 18 7
21 16 4 11 12 14 24 9 27 -12 161 -14 168 -4 3 6 15 7 26 3 14 -4 18 -2 14 5
-4 6 4 22 18 36 15 14 26 25 27 23 6 -24 6 -37 -1 -33 -4 3 -10 -2 -14 -10 -3
-10 1 -15 13 -15 11 0 21 9 24 21 5 19 11 21 38 15 18 -3 57 -9 86 -13 35 -4
53 -10 53 -19 0 -16 16 -19 25 -4 3 6 15 10 26 10 10 0 19 5 19 11 0 6 -6 9
-14 6 -8 -3 -17 -1 -20 6 -3 9 -6 9 -13 0 -10 -13 -101 2 -118 20 -7 7 -4 8
10 3 44 -16 76 -18 90 -6 11 10 18 10 29 1 9 -7 15 -8 18 -2 2 6 20 6 52 -1
34 -7 45 -13 35 -19 -10 -6 -6 -9 13 -9 14 0 28 -4 30 -9 2 -5 10 -11 18 -13
30 -6 75 -36 72 -48 -1 -6 2 -9 8 -5 6 3 7 18 3 33 -6 24 -5 26 10 13 10 -7
17 -19 17 -26 0 -7 7 -15 15 -19 8 -3 15 -12 15 -21 0 -21 20 -19 21 3 1 16 2
16 6 0 2 -9 0 -26 -6 -36 -7 -14 -6 -24 4 -38 8 -11 15 -29 15 -41 0 -31 16
-29 27 4 l9 27 17 -33 c20 -40 22 -61 5 -61 -9 0 -9 -3 1 -9 10 -6 12 -20 8
-46 -6 -35 -5 -36 21 -33 24 3 27 -1 29 -31 2 -25 -3 -41 -19 -58 -21 -23 -13
-34 10 -11 9 9 13 7 18 -5 3 -9 9 -15 13 -12 4 2 13 -12 20 -31 11 -30 10 -39
-3 -59 -9 -14 -21 -25 -26 -25 -6 0 -10 -5 -10 -11 0 -6 6 -9 14 -6 15 6 50
-30 36 -38 -5 -3 2 -17 15 -31 13 -14 29 -23 34 -19 6 3 11 1 11 -4 0 -6 -14
-11 -32 -11 -17 0 -28 -3 -25 -7 4 -3 2 -12 -4 -19 -7 -9 -4 -18 12 -33 13
-12 29 -21 36 -21 7 0 13 -5 13 -11 0 -5 -4 -7 -10 -4 -6 3 -7 -1 -4 -9 5 -13
-1 -16 -30 -16 -29 0 -36 -4 -36 -20 0 -24 15 -27 24 -4 3 8 10 12 16 9 6 -4
8 -11 5 -16 -4 -5 3 -9 13 -9 11 0 22 -7 26 -15 3 -8 1 -15 -5 -15 -6 0 -9 -6
-7 -12 3 -7 11 -13 19 -13 8 0 14 -4 14 -10 0 -5 -5 -9 -12 -9 -9 1 -8 -7 2
-33 17 -41 20 -93 5 -93 -5 0 -10 9 -10 20 0 11 -4 20 -8 20 -4 0 -8 -16 -8
-36 0 -29 3 -34 18 -31 14 4 18 -1 18 -22 0 -34 -26 -71 -38 -54 -5 8 -12 9
-22 2 -11 -8 -12 -12 -2 -16 18 -7 15 -36 -3 -29 -11 4 -15 -2 -16 -22 -2 -66
4 -108 18 -124 9 -10 12 -18 6 -18 -5 0 -18 9 -28 20 -13 15 -16 28 -11 56 5
24 4 34 -3 29 -6 -3 -11 -22 -11 -41 0 -40 -3 -41 -33 -14 -12 11 -27 18 -34
15 -7 -3 -20 -8 -28 -11 -11 -4 -15 0 -15 15 0 25 -9 26 -36 7 -17 -13 -22
-13 -43 1 -23 15 -24 14 -18 -5 4 -19 1 -21 -24 -18 -16 2 -29 -1 -29 -5 0 -5
-9 -9 -19 -9 -26 0 -52 -11 -47 -19 9 -14 -105 -2 -130 14 -13 8 -29 13 -34
10 -5 -3 -11 -1 -15 4 -9 16 -67 -8 -98 -40 -33 -34 -62 -39 -52 -9 10 31 0
24 -34 -22 -17 -23 -32 -38 -32 -32 -4 33 -4 41 4 59 8 20 8 20 -7 1 -9 -11
-14 -30 -12 -42 3 -13 -1 -25 -10 -28 -8 -3 -14 -1 -14 3 0 5 -7 12 -16 15 -9
3 -12 2 -9 -5 9 -13 -34 -69 -108 -143 -37 -36 -60 -67 -61 -82 0 -14 -6 -22
-13 -20 -7 3 -10 -1 -6 -10 3 -7 0 -14 -7 -14 -6 0 -9 -4 -5 -9 3 -5 0 -13 -6
-16 -5 -4 -8 -13 -5 -21 3 -8 0 -14 -7 -14 -9 0 -8 -3 1 -9 11 -7 11 -9 -1
-14 -11 -4 -13 -28 -11 -124 2 -65 7 -146 12 -180 5 -40 5 -63 -1 -63 -5 0 -4
-6 2 -14 6 -7 9 -21 5 -30 -3 -9 -2 -16 4 -16 5 0 12 -9 15 -20 3 -11 9 -20
14 -20 13 0 32 49 22 56 -5 3 -3 14 5 26 11 15 12 27 5 45 -17 46 -11 75 24
104 29 25 30 28 11 29 -14 0 -24 -8 -28 -22 -11 -44 -23 -3 -18 65 3 53 8 67
21 68 14 1 13 2 -1 6 -20 5 -20 5 -12 27 3 9 15 16 26 16 17 0 19 5 14 25 -5
19 -2 25 9 25 9 0 13 5 10 11 -4 6 3 21 15 34 19 20 25 21 50 12 16 -6 27 -15
24 -19 -3 -4 0 -8 5 -8 6 0 11 9 11 20 0 21 14 27 25 11 3 -6 17 -4 33 5 15 7
33 14 41 14 23 0 -6 -27 -56 -52 -45 -23 -70 -44 -61 -54 3 -3 28 -7 54 -10
27 -3 54 -7 60 -9 6 -2 17 1 25 6 10 6 4 9 -18 9 -18 0 -33 2 -33 4 0 2 -3 11
-6 20 -5 12 0 16 19 16 13 0 31 7 38 17 14 16 69 43 88 43 5 0 12 -13 16 -30
4 -16 19 -43 35 -60 27 -29 31 -30 113 -30 l85 0 26 35 c31 41 74 48 83 15 3
-11 9 -20 14 -20 5 0 9 -6 9 -12 0 -7 18 -26 40 -42 33 -25 68 -68 40 -51 -5
3 -18 -4 -28 -15 -11 -12 -29 -22 -41 -23 -35 -2 -24 -14 15 -15 38 -2 72 12
89 35 21 28 82 32 168 13 45 -11 110 -25 145 -32 52 -10 61 -15 56 -30 -3 -11
0 -18 7 -18 8 0 10 -13 6 -45 -5 -32 -3 -43 6 -41 6 1 9 1 5 -1 -5 -3 -8 -11
-8 -20 0 -9 -16 2 -41 27 -23 23 -44 38 -48 34 -3 -4 0 -9 7 -11 6 -3 12 -9
12 -15 0 -5 8 -22 19 -36 18 -27 25 -66 9 -56 -4 3 -8 9 -8 15 0 13 -71 81
-78 75 -3 -3 3 -24 13 -47 18 -39 18 -43 3 -70 -16 -27 -16 -30 2 -51 l20 -23
-5 35 c-5 33 -5 33 6 10 15 -32 18 -121 4 -116 -5 1 -10 13 -9 25 0 11 -5 21
-13 21 -13 0 -17 -17 -14 -52 2 -12 -3 -16 -13 -12 -21 8 -20 -5 1 -28 18 -21
25 -67 11 -85 -5 -7 -5 -14 2 -18 17 -10 12 -25 -12 -35 -21 -8 -22 -9 -3 -10
17 -1 17 -3 -5 -12 -24 -10 -24 -10 -5 -18 18 -7 19 -8 3 -15 -22 -9 -25 -65
-4 -65 8 0 17 6 19 13 3 6 6 2 6 -10 1 -25 -15 -39 -23 -21 -3 7 -3 3 -1 -9 3
-12 1 -24 -5 -28 -6 -4 -8 -16 -5 -28 2 -12 2 -16 -1 -9 -3 6 -11 12 -17 12
-8 0 -12 -23 -12 -68 0 -67 0 -67 -27 -64 -31 3 -39 -7 -40 -48 -1 -31 -7 -34
-65 -33 -29 0 -30 -14 -2 -22 17 -6 19 -9 8 -16 -8 -5 -16 -3 -21 4 -5 8 -8 6
-8 -6 0 -10 -4 -16 -10 -12 -5 3 -7 12 -3 20 3 8 0 15 -6 15 -6 0 -11 -10 -11
-22 -1 -23 -1 -23 -16 -3 -8 11 -18 19 -22 18 -15 -6 -42 9 -42 23 0 8 -8 14
-19 14 -10 0 -24 7 -31 15 -7 8 -19 15 -26 15 -8 0 -14 10 -14 21 0 17 -3 19
-14 10 -11 -9 -17 -9 -28 1 -18 17 -73 48 -86 48 -5 0 -12 -8 -16 -17 -3 -10
-9 -23 -12 -30 -3 -7 2 -10 13 -7 11 3 23 -3 31 -16 8 -14 9 -20 1 -20 -6 0
-9 -9 -6 -19 4 -17 2 -18 -15 -8 -10 7 -17 19 -15 29 3 11 0 15 -9 11 -8 -3
-14 -7 -14 -10 0 -11 35 -63 42 -63 4 0 5 -7 2 -15 -5 -11 -12 -7 -31 16 -20
23 -28 27 -34 17 -7 -10 -9 -9 -9 3 0 9 -8 23 -17 30 -15 12 -16 12 -10 -3 3
-10 4 -25 0 -34 -5 -13 -10 -11 -34 12 -24 23 -29 25 -35 11 -5 -14 -9 -14
-35 5 -16 12 -29 31 -29 42 0 17 -2 18 -10 6 -8 -13 -11 -11 -16 8 -4 12 -10
22 -15 22 -5 0 -9 -10 -9 -22 -1 -23 -1 -23 -16 -3 -11 14 -15 15 -14 5 5 -35
1 -40 -25 -28 -14 6 -25 17 -25 25 0 7 -4 13 -9 13 -5 0 -11 10 -13 23 -2 18
-9 22 -34 20 -21 -2 -31 2 -31 12 0 9 11 15 29 16 50 2 53 4 57 24 2 11 8 23
15 27 8 6 8 8 -1 8 -6 0 -10 8 -8 18 2 9 6 32 9 51 6 34 6 34 -14 16 -18 -16
-26 -17 -67 -8 -40 10 -52 8 -90 -10 -43 -21 -65 -18 -45 6 20 24 0 38 -36 25
-18 -7 -32 -16 -32 -21 0 -17 -76 -80 -105 -87 -21 -4 -29 -11 -27 -23 2 -9
-2 -17 -8 -17 -6 0 -9 4 -5 9 9 15 -13 23 -32 12 -17 -10 -17 -10 0 -11 10 0
16 -3 13 -8 -6 -10 -96 -2 -96 9 0 5 -7 9 -15 9 -8 0 -15 7 -15 15 0 15 -30
55 -41 55 -4 0 -25 19 -48 42 -42 41 -42 41 -57 20 -19 -28 -22 -28 -64 8 -19
17 -40 28 -47 25 -7 -2 -15 1 -19 7 -4 6 -23 8 -49 5 -37 -5 -44 -3 -53 16
-10 21 -11 20 -11 -10 -1 -18 -5 -33 -11 -33 -5 0 -10 -7 -10 -16 0 -8 5 -12
10 -9 14 9 12 -9 -6 -55 -9 -22 -14 -53 -12 -69 4 -26 2 -28 -14 -17 -20 12
-24 26 -8 26 6 0 10 5 10 11 0 24 -28 -12 -34 -44 -5 -25 -9 -29 -16 -17 -6 9
-10 10 -10 3 0 -6 5 -15 10 -18 6 -4 1 -14 -12 -25 -24 -19 -48 -11 -48 15 0
8 -5 15 -12 17 -7 3 -8 9 -3 19 14 21 16 47 5 54 -6 3 -10 0 -10 -8 0 -22 -27
-41 -33 -25 -3 7 -6 3 -6 -9 -1 -13 -6 -23 -12 -23 -6 0 -7 -6 -2 -12 4 -7 -5
-5 -20 5 -24 15 -27 16 -27 2 0 -9 5 -13 10 -10 6 3 10 -3 10 -14 0 -12 -6
-21 -14 -21 -8 0 -18 -5 -22 -11 -4 -8 0 -9 15 -4 12 4 21 2 21 -4 0 -6 -7
-11 -15 -11 -8 0 -15 -8 -15 -18 0 -10 -10 -26 -21 -36 -12 -10 -19 -14 -17
-9 2 4 10 21 18 36 11 23 11 30 1 36 -8 5 -10 18 -5 36 6 22 4 26 -7 20 -12
-8 -12 -6 -1 8 17 20 12 40 -6 28 -14 -9 -19 -57 -8 -86 6 -16 6 -17 -3 -5 -6
8 -11 10 -11 4 0 -6 -7 -11 -15 -11 -17 0 -20 23 -5 32 6 3 10 14 10 23 0 13
-2 13 -15 -4 -14 -19 -14 -19 -15 0 0 20 0 20 -14 1 -8 -11 -12 -23 -10 -27 3
-4 0 -16 -5 -25 -20 -35 -12 32 10 82 23 53 33 65 138 179 48 52 69 82 60 85
-7 2 -15 -1 -17 -8 -6 -19 -52 -65 -52 -52 0 20 -50 -20 -56 -45 -3 -13 -11
-24 -16 -24 -6 0 -22 -12 -38 -27 -70 -70 -184 -163 -199 -163 -15 0 -14 -17
2 -23 15 -5 -30 -46 -53 -47 -10 -1 -11 -3 -2 -7 17 -7 15 -23 -3 -23 -8 0
-15 -4 -15 -9 0 -5 10 -7 23 -4 18 3 17 1 -7 -12 -22 -13 -26 -19 -15 -25 8
-5 19 -4 26 2 9 7 13 7 13 0 0 -6 -9 -14 -20 -17 -20 -6 -28 -35 -10 -35 6 0
24 13 42 30 17 17 31 30 32 30 1 0 1 -16 2 -34 0 -19 -2 -35 -5 -34 -22 2 -31
-5 -31 -25 0 -12 -9 -28 -20 -35 -11 -7 -20 -23 -20 -37 0 -14 -4 -25 -9 -25
-5 0 -12 -13 -16 -30 -4 -16 -11 -32 -16 -35 -11 -8 -12 -25 -1 -25 5 0 14 16
22 35 17 42 31 41 43 -5 7 -26 11 -31 18 -19 7 9 9 -5 5 -46 l-6 -60 15 40 c8
22 15 41 15 43 0 1 4 2 9 2 5 0 7 -9 4 -20 -3 -12 -2 -20 3 -19 22 4 34 -2 34
-17 0 -8 5 -12 10 -9 6 3 10 -1 10 -10 0 -9 6 -15 13 -12 7 2 12 22 11 50 0
54 11 62 20 15 7 -42 1 -74 -13 -71 -13 3 -44 -54 -38 -70 3 -7 9 0 15 14 11
26 41 35 54 15 4 -6 8 1 8 15 0 15 7 32 15 39 16 13 21 45 6 36 -14 -9 -30 38
-19 57 5 10 6 26 3 37 -4 11 -4 29 0 39 5 16 14 19 51 17 35 -2 53 -10 81 -37
20 -19 42 -38 49 -44 6 -5 24 -21 39 -33 16 -15 35 -22 47 -19 22 6 88 -19 88
-33 0 -6 9 -10 20 -10 11 0 20 -4 20 -10 0 -5 13 -8 29 -7 28 2 28 3 15 29
-15 29 -34 45 -34 29 0 -24 -50 14 -61 46 -15 48 -6 67 30 60 19 -4 33 -1 41
8 20 24 74 18 105 -11 26 -24 30 -25 40 -10 7 9 24 16 38 16 31 0 77 -19 77
-33 0 -5 7 -7 15 -3 8 3 36 -5 62 -17 40 -18 66 -21 158 -21 71 0 130 6 165
16 72 22 124 25 143 10 11 -10 17 -9 27 3 7 8 28 15 46 15 33 0 34 -1 34 -40
0 -41 -14 -84 -38 -112 -13 -16 -12 -17 18 -8 18 5 37 7 41 4 5 -3 9 -1 9 5 0
9 31 24 55 27 6 0 27 8 47 18 21 9 42 16 48 16 5 0 10 4 10 8 0 5 18 17 40 28
22 10 40 22 40 25 0 6 87 24 102 21 4 -1 23 5 42 13 l36 15 0 -27 0 -28 19 23
c16 22 19 23 34 7 21 -20 22 -29 2 -21 -11 4 -15 -1 -15 -19 0 -13 5 -27 10
-30 6 -3 10 -1 10 4 0 6 5 11 10 11 6 0 8 -11 4 -27 -5 -23 -4 -26 7 -15 7 6
21 12 31 12 10 0 23 11 28 24 12 32 30 42 30 17 0 -11 4 -22 9 -26 13 -7 25
57 16 85 -5 17 -4 20 5 15 10 -6 12 2 6 36 -4 27 -3 39 3 30 5 -7 14 -10 20
-7 15 9 14 43 -1 48 -9 3 -9 13 -1 39 l11 34 1 -32 c1 -18 5 -33 10 -33 5 0
11 -6 14 -12 2 -7 2 -3 0 9 -2 14 6 32 22 47 28 28 45 35 25 11 -11 -13 -8
-15 16 -16 29 -1 29 -1 4 -9 -22 -6 -23 -8 -8 -15 10 -4 15 -11 12 -17 -3 -5
-16 -2 -30 7 -13 8 -24 13 -24 10 0 -9 27 -35 37 -35 4 0 16 -12 26 -25 17
-24 17 -25 -3 -25 -11 0 -20 -4 -20 -10 0 -5 -7 -10 -15 -10 -8 0 -15 -5 -15
-10 0 -6 11 -8 28 -4 15 4 24 3 20 -1 -4 -5 -3 -15 4 -22 9 -11 9 -16 0 -22
-7 -4 -10 -15 -6 -24 4 -10 1 -17 -6 -17 -10 0 -10 -3 0 -15 9 -10 9 -15 1
-15 -6 0 -11 -11 -11 -25 0 -29 16 -34 23 -8 3 10 5 1 6 -19 1 -42 -11 -55
-29 -33 -19 23 -30 18 -30 -12 0 -16 -3 -38 -6 -51 -5 -19 -9 -20 -22 -10 -14
12 -15 7 -10 -37 6 -54 2 -75 -14 -75 -6 0 -8 10 -4 25 6 22 3 24 -24 22 -27
-2 -31 -6 -36 -39 -5 -26 -10 -35 -20 -31 -8 3 -14 0 -14 -6 0 -6 -5 -11 -12
-11 -6 0 -8 3 -5 7 4 3 1 13 -6 21 -6 8 -12 23 -12 33 0 10 -4 18 -10 16 -5
-1 -9 -8 -9 -14 1 -7 -4 -13 -12 -13 -17 0 -17 1 -4 35 6 15 7 32 3 38 -4 7
-6 26 -4 44 1 19 -2 33 -9 33 -6 0 -10 -6 -9 -12 3 -26 -1 -38 -13 -35 -6 1
-15 -9 -19 -23 -4 -14 -7 -19 -8 -12 -1 7 -5 11 -11 7 -5 -3 -7 -12 -4 -20 4
-10 -2 -13 -20 -11 -14 2 -23 -1 -20 -5 3 -5 11 -9 18 -9 19 0 42 -30 30 -38
-18 -14 -10 -47 14 -50 12 -2 27 -12 32 -23 10 -17 8 -18 -17 -8 -15 5 -33 15
-40 21 -19 15 -16 0 5 -30 10 -15 22 -35 25 -45 4 -9 12 -16 18 -15 6 2 14 -3
16 -9 3 -7 0 -13 -7 -13 -6 0 -9 -4 -6 -9 4 -5 -11 -7 -34 -4 -25 4 -40 2 -40
-5 0 -6 15 -12 33 -14 17 -2 31 -7 30 -13 0 -5 3 -18 8 -27 12 -22 12 -22 -39
2 -53 26 -62 25 -62 -5 0 -27 17 -34 26 -10 8 20 24 19 24 0 0 -9 7 -18 15
-21 8 -4 15 -10 15 -15 0 -5 -7 -9 -15 -9 -15 0 -22 -19 -7 -21 54 -6 59 -4
54 16 -6 23 -3 21 22 -19 16 -25 16 -28 2 -23 -9 4 -16 2 -16 -4 0 -6 -17 -8
-44 -5 -30 4 -46 1 -49 -7 -3 -8 -12 -5 -28 9 -38 34 -57 39 -21 6 38 -35 40
-42 10 -42 -21 0 -23 -6 -3 -10 6 -1 21 -7 34 -12 22 -8 23 -7 10 8 -12 15
-12 17 1 12 23 -7 24 -51 2 -76 l-19 -22 -6 28 c-5 27 -17 32 -56 23 -2 -1 2
-8 9 -16 6 -8 9 -18 6 -23 -3 -6 2 -9 11 -8 10 0 19 -8 21 -19 4 -17 2 -18
-12 -6 -17 15 -21 5 -7 -18 6 -9 6 -22 -1 -34 -14 -28 3 -41 35 -26 25 11 25
13 9 25 -15 13 -15 13 7 10 27 -3 39 -20 22 -30 -6 -4 -8 -13 -4 -21 3 -8 0
-15 -7 -15 -7 0 -9 -8 -5 -20 4 -11 2 -20 -4 -20 -6 0 -11 4 -11 10 0 5 -10 8
-22 7 -15 -3 -23 -11 -23 -28 -3 -57 -6 -70 -14 -64 -5 3 -12 19 -16 35 -8 35
-34 54 -51 36 -6 -6 -9 -17 -6 -24 2 -6 -3 -12 -12 -12 -10 0 -13 6 -9 17 4
11 3 14 -5 9 -8 -5 -10 -2 -6 8 3 9 1 16 -5 16 -11 0 -22 8 -56 38 -10 9 -15
10 -15 2 0 -6 -5 -8 -10 -5 -6 4 -8 10 -5 15 3 5 2 11 -3 14 -19 11 -7 -30 15
-54 20 -21 23 -22 18 -5 -5 15 0 12 19 -10 16 -19 26 -42 26 -62 0 -39 -14
-42 -36 -8 -9 14 -21 25 -28 24 -7 0 -6 -2 2 -6 6 -2 12 -10 12 -17 0 -8 9
-25 20 -38 17 -22 17 -28 6 -44 -14 -18 -15 -18 -34 -1 -14 13 -20 14 -19 5 1
-40 -4 -68 -14 -68 -6 0 -20 -11 -31 -25 -16 -20 -23 -23 -34 -14 -8 6 -14 17
-14 24 0 18 -27 26 -39 11 -12 -15 -3 -58 11 -50 6 4 5 -4 -2 -16 -10 -18 -14
-20 -21 -9 -7 11 -9 10 -9 -3 0 -22 -16 -24 -24 -3 -7 19 -26 19 -26 0 0 -23
-16 -18 -44 15 -25 30 -29 71 -10 102 6 10 4 10 -8 0 -14 -11 -17 -10 -22 5
-3 10 -4 3 -2 -14 2 -28 0 -31 -13 -20 -12 10 -14 9 -8 -6 4 -10 7 -23 7 -28
0 -6 4 -8 9 -4 11 6 16 -1 25 -39 6 -26 5 -28 -8 -17 -14 11 -16 11 -16 -5 0
-11 5 -26 10 -34 8 -13 10 -12 10 3 0 10 5 15 10 12 12 -7 -5 -35 -21 -35 -14
0 -57 93 -53 115 2 13 -5 24 -22 32 -22 10 -25 10 -20 -3 3 -9 6 -20 6 -25 0
-6 4 -8 9 -4 5 3 13 0 17 -6 5 -8 3 -9 -5 -4 -10 6 -11 3 -3 -12 6 -11 7 -32
2 -53 -7 -33 -15 -21 -12 19 1 17 -35 91 -44 91 -3 0 -3 -8 1 -17 4 -10 9 -34
12 -53 4 -33 4 -34 -11 -15 -8 11 -16 26 -16 33 0 7 -4 11 -9 8 -5 -4 -11 -1
-13 6 -3 7 -10 8 -17 4 -9 -6 -10 -11 -2 -19 13 -13 15 -57 3 -57 -4 0 -13 5
-20 12 -9 9 -12 8 -12 -8 0 -11 9 -26 20 -34 11 -8 20 -19 20 -24 0 -18 -48
36 -54 60 -4 13 -11 24 -16 24 -13 0 -13 -17 0 -25 6 -3 10 -16 9 -28 0 -21
-1 -21 -11 3 -6 16 -12 20 -15 12 -4 -9 -10 -6 -24 9 -21 25 -23 22 -9 -15 7
-20 6 -26 -5 -26 -8 0 -17 14 -21 35 -3 19 -11 35 -16 35 -5 0 -6 -10 -3 -21
5 -15 4 -19 -4 -15 -6 4 -14 0 -17 -8 -3 -9 -12 -16 -20 -16 -8 0 -14 -7 -14
-16 0 -14 -2 -14 -15 0 -11 11 -13 21 -7 33 11 22 3 113 -9 113 -5 0 -9 -7 -9
-16 0 -8 -6 -22 -14 -29 -12 -12 -16 -12 -26 0 -7 8 -10 24 -7 34 3 14 1 18
-9 14 -11 -4 -13 -17 -8 -56 6 -43 5 -49 -9 -44 -9 3 -18 -1 -21 -9 -3 -9 -1
-12 4 -9 16 10 12 -29 -5 -51 -15 -18 -15 -18 -9 8 4 18 2 28 -6 28 -7 0 -9 8
-5 19 3 11 2 22 -3 25 -6 3 -13 -10 -16 -29 -9 -48 -29 -45 -21 3 4 20 3 32
-2 26 -5 -7 -9 13 -10 47 -2 50 1 61 17 71 11 7 20 20 20 28 0 13 -1 13 -10 0
-9 -13 -10 -13 -10 0 -1 12 -3 11 -11 -3 -6 -9 -14 -15 -18 -13 -4 3 -8 -15
-9 -40 0 -26 -5 -51 -11 -57 -8 -8 -10 -3 -5 21 4 19 2 32 -3 32 -6 0 -13 -22
-17 -50 -4 -27 -10 -51 -15 -54 -4 -3 -24 8 -43 24 -19 16 -38 26 -42 23 -3
-3 -6 2 -6 13 0 18 -1 18 -14 -1 -7 -11 -16 -29 -19 -40 -5 -19 -5 -19 -12 2
-7 21 -8 21 -31 6 -15 -9 -24 -11 -24 -4 0 6 5 11 10 11 6 0 10 18 10 40 0 45
-10 50 -40 20 -11 -11 -21 -20 -23 -20 -6 0 0 50 6 57 4 3 7 15 7 26 0 15 -3
17 -13 8 -8 -6 -18 -7 -22 -3 -5 4 -5 2 -2 -4 4 -6 -2 -19 -13 -29 -22 -20
-37 -15 -24 7 5 7 9 30 10 51 0 21 8 45 17 54 16 16 17 16 17 -5 0 -15 -4 -21
-12 -16 -7 4 -8 3 -4 -5 6 -9 11 -9 22 0 7 6 12 14 10 18 -1 3 -6 14 -10 25
-5 15 -9 16 -21 6 -9 -7 -19 -10 -23 -6 -4 5 -12 -9 -18 -30 -6 -21 -16 -40
-24 -42 -9 -3 -11 1 -7 11 4 11 2 14 -9 10 -25 -9 -15 18 17 48 34 32 28 39
-11 12 -21 -15 -23 -15 -17 0 7 20 -11 27 -42 15 -21 -8 -23 -6 -18 17 3 19 1
25 -9 21 -7 -3 -16 -1 -19 4 -4 6 5 10 20 10 14 0 28 7 31 15 4 8 10 15 16 15
5 0 7 -4 4 -9 -4 -5 3 -7 14 -4 11 3 20 12 20 20 0 11 -7 13 -26 9 -19 -5 -24
-4 -18 5 5 9 2 10 -9 6 -10 -3 -17 -2 -17 4 0 5 11 14 25 19 14 5 25 15 25 21
0 8 -4 8 -15 -1 -8 -7 -15 -9 -15 -5 0 4 -10 1 -23 -8 -12 -8 -43 -17 -67 -21
-39 -5 -41 -4 -17 5 15 6 27 15 27 20 0 12 -7 11 -31 -1 -32 -18 -22 6 18 41
l38 32 -35 -6 c-33 -6 -34 -6 -16 8 11 8 28 13 37 10 10 -3 19 1 23 11 5 14 4
15 -9 4 -17 -14 -21 0 -4 17 7 7 -3 9 -35 7 -47 -4 -55 2 -33 25 10 10 8 12
-8 9 -11 -2 -21 -13 -23 -25 -2 -13 -17 -28 -38 -38 -45 -21 -56 -12 -17 12
37 23 32 40 -10 37 -17 -2 -24 -1 -14 2 22 7 12 24 -14 24 -10 0 -19 4 -19 10
0 5 6 7 13 5 6 -3 17 6 23 19 10 21 9 26 -5 28 -10 2 -2 10 23 22 22 10 49 16
65 13 17 -4 35 1 51 13 28 22 14 28 -14 7 -21 -15 -69 -10 -59 6 4 6 -4 8 -21
5 -14 -3 -26 -1 -26 3 0 5 -4 9 -10 9 -5 0 -10 -9 -10 -21 0 -11 5 -17 10 -14
6 3 10 1 10 -5 0 -6 -8 -14 -17 -17 -10 -4 -21 -11 -25 -17 -5 -7 -8 -6 -8 3
0 9 -8 11 -25 7 -28 -7 -33 5 -10 24 8 7 12 17 8 24 -3 6 -3 8 2 4 10 -9 65
19 65 33 0 7 -7 8 -17 4 -10 -4 -31 -11 -46 -16 -25 -7 -27 -6 -17 6 7 8 21
15 31 15 22 0 24 11 7 28 -9 9 -8 12 5 12 9 0 17 5 17 10 0 6 -5 10 -11 10 -6
0 -9 9 -6 20 7 26 0 25 -23 -3 l-19 -22 8 35 c5 19 12 43 16 52 4 11 3 18 -3
18 -19 0 -8 42 19 71 27 29 30 43 16 66 -4 7 -4 25 -1 40 7 25 6 26 -8 13 -8
-8 -17 -30 -21 -48 -5 -25 -3 -32 9 -32 8 0 12 -4 9 -10 -9 -14 -46 12 -40 28
10 27 -24 22 -54 -8 -21 -22 -37 -30 -50 -25 -11 3 -22 1 -25 -4 -4 -6 -13 -8
-21 -5 -22 9 -8 24 22 24 15 0 23 3 20 7 -4 3 1 12 11 19 16 13 16 13 0 14
-17 0 -26 20 -10 20 8 0 32 43 32 55 0 2 -8 1 -17 -2 -13 -5 -15 -2 -10 11 4
10 7 25 7 33 0 12 3 13 13 4 15 -12 27 -5 27 15 0 8 -11 11 -31 9 -26 -4 -29
-1 -24 14 3 11 -1 26 -10 34 -8 9 -15 33 -15 56 0 43 -14 52 -39 29 -11 -10
-13 -10 -7 0 4 7 1 12 -8 12 -18 0 -21 16 -6 25 6 3 10 1 10 -4 0 -24 18 -9
23 19 4 20 11 28 20 24 14 -5 30 29 19 40 -12 13 -34 5 -28 -9 3 -8 1 -15 -4
-15 -17 0 -11 37 6 44 9 4 14 10 10 13 -4 4 4 13 16 21 23 14 17 14 -31 1 -7
-2 -16 2 -18 9 -3 8 1 12 12 10 10 -2 22 6 29 17 6 11 16 23 21 27 6 5 5 8 -2
8 -7 0 -13 9 -13 20 0 11 5 20 10 20 6 0 10 5 10 11 0 5 -4 8 -9 5 -5 -4 -20
-2 -33 3 l-23 10 25 1 c25 0 24 1 -7 21 -20 12 -30 26 -26 35 3 8 0 14 -6 14
-6 0 -11 -4 -11 -10 0 -5 -4 -10 -10 -10 -14 0 -12 27 3 33 8 4 1 15 -20 34
-30 26 -33 32 -29 77 4 41 2 49 -15 53 -14 4 -19 14 -19 40 0 27 -3 34 -15 29
-11 -4 -15 2 -15 22 0 21 2 24 10 12 7 -11 10 -7 10 18 0 19 -5 32 -12 32 -16
0 -20 51 -5 69 9 10 7 16 -7 27 -16 11 -17 16 -6 29 10 13 9 15 -8 15 -22 0
-37 41 -33 93 1 15 -3 27 -8 27 -15 0 -23 63 -9 73 9 6 6 7 -9 4 -26 -6 -33
20 -9 29 8 3 12 12 9 20 -4 11 -7 11 -20 -2 -21 -20 -26 -13 -13 20 15 42 12
51 -10 25 l-19 -24 -2 30 c-2 48 1 59 22 77 12 10 15 19 9 23 -5 3 -10 2 -10
-2 0 -5 -9 -14 -20 -21 -19 -12 -20 -11 -15 15 3 16 2 22 -1 16 -10 -22 -24
-14 -22 11 2 20 5 23 17 13 11 -10 13 -8 7 10 -4 14 -2 23 6 26 7 2 3 2 -9 0
-16 -2 -23 2 -23 12 0 8 -8 15 -17 16 -10 0 -13 3 -6 5 7 3 10 19 7 40 -4 31
8 46 20 25 3 -5 27 -12 53 -15 27 -4 71 -14 99 -23 46 -14 58 -14 118 -1 37 8
69 11 72 7 4 -7 63 -2 73 7 2 2 -2 10 -9 19 -19 23 -3 18 46 -15 34 -24 44
-27 44 -15 0 9 -6 18 -13 21 -30 11 -14 40 39 69 30 16 54 33 54 37 0 4 11 -4
24 -17 23 -23 41 -27 168 -40 55 -5 57 -4 76 28 11 17 24 44 27 59 8 31 20 31
75 4 37 -19 80 -78 61 -84 -26 -9 -9 -30 24 -30 19 0 32 4 29 9 -3 5 -12 9
-21 9 -26 0 -6 13 24 16 15 2 33 -2 40 -8 8 -6 16 -9 19 -6 3 3 -9 18 -27 32
-34 29 -30 50 8 40 13 -4 20 -11 16 -20 -3 -9 2 -14 16 -14 12 0 21 5 21 10 0
39 115 -35 129 -83 5 -18 10 -24 10 -13 1 15 4 16 16 6 8 -7 13 -16 10 -20 -2
-4 0 -24 6 -44 7 -26 7 -41 -1 -50 -8 -10 -6 -15 8 -18 17 -5 20 -18 24 -94 3
-53 1 -94 -5 -102 -7 -9 -7 -16 1 -24 9 -9 12 -9 12 0 0 7 6 12 13 12 16 0 40
47 32 61 -3 5 0 6 8 3 11 -4 15 10 20 63 8 82 1 193 -13 207 -6 6 -10 20 -10
33 0 13 -4 23 -9 23 -10 0 -27 43 -30 78 0 6 -9 12 -18 12 -15 0 -16 2 -3 10
13 8 13 11 1 19 -7 5 -10 14 -7 20 4 6 0 11 -9 11 -9 0 -18 12 -21 30 -4 17
-10 30 -15 30 -5 0 -9 7 -9 16 0 9 -8 24 -18 33 -11 9 -22 28 -26 44 -3 15
-11 27 -17 27 -6 0 -8 -7 -5 -16 5 -14 4 -15 -8 -5 -7 6 -21 9 -30 5 -9 -3
-16 -1 -16 4 0 6 -9 13 -19 17 -11 3 -22 14 -24 23 -3 11 -5 9 -6 -8 -2 -21
-5 -17 -19 19 -9 24 -24 47 -32 49 -12 4 -11 1 3 -15 26 -30 20 -40 -8 -13
-21 20 -25 21 -31 7 -5 -14 -10 -12 -30 10 -18 20 -33 26 -57 24 -72 -6 -107
-2 -139 13 -20 11 -34 13 -36 7 -2 -7 -9 -5 -18 3 -15 16 -116 32 -133 21 -6
-3 -11 -2 -11 4 0 7 -8 7 -22 2 -13 -4 -40 -7 -61 -5 -21 2 -35 0 -33 -5 3 -4
0 -8 -7 -8 -7 0 -23 -3 -37 -7 -19 -5 -17 -2 8 11 17 9 32 23 32 30 0 18 -35
17 -50 -2 -15 -18 -31 -10 -23 10 3 8 0 15 -7 15 -6 0 -9 -4 -5 -9 3 -5 0 -13
-6 -17 -9 -5 -7 -10 4 -19 14 -10 12 -12 -12 -12 -20 0 -28 4 -24 14 3 8 -2
13 -16 13 -12 0 -21 -4 -21 -9 0 -15 -49 -19 -61 -5 -6 8 -16 14 -22 14 -15 0
-47 41 -47 61 0 9 6 19 13 22 9 3 9 9 0 25 -12 20 -12 28 3 70 4 9 6 31 5 47
-1 17 3 37 8 44 6 9 6 22 0 32 -6 13 -5 20 4 26 16 9 31 43 28 61 -1 6 3 12 9
12 6 0 8 5 5 11 -4 6 -14 8 -22 4 -13 -4 -14 -3 -3 10 7 8 18 15 25 15 7 0 15
9 18 20 4 15 0 20 -15 20 -15 0 -18 4 -12 23 8 27 24 39 47 33 9 -2 14 0 11 6
-3 5 -16 8 -27 7 -45 -3 -51 3 -17 16 34 13 34 14 8 14 -26 1 -42 21 -17 21 5
0 7 5 4 10 -3 6 1 10 9 10 10 0 16 9 16 21 0 15 5 19 15 15 8 -3 15 -1 15 3 0
5 3 17 6 25 5 12 2 15 -12 10 -16 -5 -16 -4 -4 5 11 8 12 13 4 19 -14 9 -13
53 2 69 6 6 18 11 27 10 9 -1 16 3 16 8 0 6 -9 9 -20 8 -10 -2 -19 2 -19 7 0
6 9 10 21 10 14 0 19 5 16 14 -3 8 2 17 11 21 15 6 14 8 -7 19 l-23 13 23 19
c13 11 25 26 27 34 2 8 7 21 12 30 8 13 9 13 10 -2 0 -21 15 -24 26 -6 4 6 2
14 -4 16 -14 4 -16 42 -3 42 5 0 11 -5 13 -11 2 -6 11 -7 22 -3 18 7 17 8 -5
17 -24 9 -24 9 -3 17 12 5 24 16 28 25 4 11 12 15 23 11 9 -4 20 -1 24 6 6 9
11 9 23 -1 17 -14 21 -7 17 27 -1 6 5 12 14 12 8 0 15 7 15 15 0 18 -12 19
-28 3 -9 -9 -12 -8 -12 5 0 9 5 17 11 17 5 0 7 5 4 10 -3 6 2 10 12 10 10 0
23 10 28 23 7 15 18 21 33 20 12 -2 22 2 22 7 0 6 7 10 15 10 7 0 18 7 23 16
5 9 12 15 15 15 23 -3 49 0 44 5 -17 17 71 68 94 53 8 -5 10 -9 6 -9 -5 0 -5
-5 -2 -10 9 -15 35 8 29 25 -8 19 37 31 50 14 6 -8 29 -14 51 -14 32 0 40 4
39 18 -1 9 2 17 7 17 5 0 9 -8 9 -17z m-292 -1612 c23 -6 42 -16 42 -20 0 -12
-60 -32 -71 -25 -5 3 -9 1 -9 -4 0 -10 -56 -9 -67 1 -3 4 -18 0 -31 -9 -21
-14 -31 -14 -65 -4 -35 10 -41 10 -49 -4 -5 -9 -13 -14 -19 -11 -5 4 -9 1 -9
-4 0 -6 -7 -11 -15 -11 -8 0 -15 5 -15 10 0 6 -7 10 -15 10 -28 0 -15 27 16
34 30 6 59 27 59 43 0 13 198 9 248 -6z m1784 -49 c6 -6 17 -8 24 -5 8 3 17
-2 20 -11 3 -9 17 -16 31 -16 13 0 22 -4 18 -9 -3 -5 1 -16 9 -24 11 -11 12
-17 3 -27 -9 -10 -7 -11 10 -6 12 4 24 3 27 -2 2 -4 -13 -13 -35 -19 -21 -5
-39 -6 -39 -2 0 5 -33 9 -72 10 -47 0 -66 3 -53 8 15 6 7 10 -35 15 -30 4 -77
13 -105 21 -27 8 -67 17 -89 20 -46 7 -41 16 11 21 21 2 65 12 98 22 63 20
159 22 177 4z m-3173 -481 c16 -15 49 -38 74 -50 25 -12 51 -28 57 -36 17 -20
4 -50 -26 -64 -22 -9 -31 -9 -50 4 -13 8 -25 15 -27 15 -2 0 -3 -25 -2 -56 1
-42 6 -59 19 -66 13 -7 16 -17 11 -36 -7 -29 -23 -52 -35 -52 -9 0 -30 46 -30
66 0 9 -8 28 -19 42 -36 52 -49 112 -40 181 13 93 20 99 68 52z m179 -314 c19
-15 14 -73 -9 -119 -16 -31 -19 -51 -15 -82 4 -22 12 -43 18 -47 13 -8 4 -46
-17 -74 -12 -16 -19 -17 -33 -8 -9 6 -16 18 -14 27 4 21 -7 21 -23 -1 -21 -28
-36 35 -25 104 6 32 10 77 10 99 0 47 23 110 42 116 16 6 49 -2 66 -15z m116
-348 c15 -62 -1 -142 -38 -185 -29 -33 -35 -36 -67 -30 -37 7 -69 46 -69 86 0
12 -5 30 -11 42 -9 16 -7 24 12 44 12 13 28 24 35 24 7 0 14 6 17 13 3 9 7 9
17 0 10 -9 18 -5 38 18 31 38 55 34 66 -12z m1549 -216 c-21 -8 -15 -22 6 -16
16 4 19 1 14 -17 -4 -16 -8 -18 -14 -8 -6 9 -9 7 -9 -9 0 -12 6 -23 13 -26 9
-3 9 -7 -1 -20 -8 -9 -11 -21 -7 -27 9 -15 34 18 35 46 0 27 19 44 47 44 13 0
23 5 23 10 0 6 4 10 9 10 4 0 3 -16 -3 -35 -6 -19 -14 -35 -18 -35 -5 0 -8 -9
-8 -19 0 -11 -6 -22 -12 -25 -10 -5 -10 -7 0 -12 6 -3 12 -15 12 -27 0 -18 2
-19 10 -7 5 8 10 29 10 47 0 17 4 34 9 38 5 3 12 19 16 35 4 17 11 30 16 30
12 0 11 -14 -1 -26 -12 -12 -2 -47 11 -39 4 3 6 12 2 20 -3 8 0 15 6 15 6 0
11 -4 11 -9 0 -5 3 -17 7 -27 4 -11 3 -15 -4 -11 -11 7 -36 -41 -33 -64 1 -8
-1 -25 -5 -38 -8 -23 -9 -23 -23 -5 -10 13 -16 15 -19 7 -3 -7 -14 -13 -26
-13 -18 0 -19 2 -7 10 9 6 10 10 3 10 -18 0 -8 88 12 110 22 24 11 44 -15 27
-13 -8 -18 -18 -14 -30 4 -13 -4 -30 -27 -53 -18 -19 -37 -34 -43 -34 -6 0 -5
5 2 12 20 20 15 40 -8 33 -16 -5 -20 -2 -19 17 0 13 3 17 6 11 2 -7 8 -13 13
-13 9 0 7 87 -3 96 -13 13 -7 20 16 21 12 0 16 -1 10 -4z m312 -71 c-3 -9 -3
-14 0 -10 4 4 19 -7 34 -24 26 -29 27 -30 28 -6 0 12 -1 17 -4 10 -3 -8 -12
-4 -25 14 -16 20 -18 28 -9 37 9 9 11 8 6 -5 -4 -10 -4 -18 0 -18 4 0 14 8 21
18 12 15 12 15 7 -5 -7 -29 13 -31 22 -3 10 30 25 14 26 -28 l1 -37 8 30 8 30
1 -33 c0 -19 5 -31 11 -27 6 3 7 -1 4 -9 -4 -12 0 -16 16 -16 17 0 21 4 17 20
-3 11 -1 20 3 20 4 0 7 -28 7 -62 -1 -35 -3 -55 -5 -45 -2 9 -8 17 -14 17 -5
0 -7 -7 -4 -16 3 -9 6 -20 6 -25 0 -4 7 -6 15 -3 8 4 15 2 15 -2 -1 -33 -53
-41 -58 -9 -3 16 -1 17 7 5 14 -20 15 4 1 31 -14 25 -27 24 -36 -3 -7 -24 -4
-35 8 -31 4 2 11 -12 16 -30 10 -36 1 -47 -38 -46 l-25 1 25 7 c29 8 35 44 8
49 -13 3 -16 -1 -11 -14 5 -15 0 -16 -51 -12 -57 5 -66 -10 -10 -17 41 -5 41
-5 19 -15 -32 -13 -118 -3 -131 15 -6 8 -18 14 -25 12 -8 -2 -11 -2 -6 0 4 3
5 9 2 13 -3 5 12 7 32 4 l38 -5 -42 23 c-37 19 -43 26 -43 55 0 33 29 102 43
103 11 0 8 -25 -5 -40 -7 -8 -3 -6 10 5 12 10 20 25 18 32 -6 15 13 63 25 63
5 0 6 -8 3 -17 -2 -10 1 -8 7 4 13 25 34 20 24 -5z"/>
<path d="M3721 1731 c-11 -7 -6 -13 25 -27 69 -30 78 -33 109 -38 17 -3 39 -7
50 -10 11 -2 40 -9 65 -15 61 -14 200 -14 280 1 36 7 86 12 112 13 28 0 44 4
40 10 -3 5 2 4 11 -4 10 -8 21 -11 24 -7 4 4 1 12 -7 17 -11 8 -9 9 9 4 18 -5
22 -4 16 6 -6 9 -4 11 8 6 11 -4 14 -2 11 8 -10 26 -42 27 -74 3 -27 -19 -34
-21 -62 -10 -28 10 -33 9 -45 -8 -12 -17 -26 -20 -87 -20 -40 0 -75 3 -79 6
-3 4 -49 7 -102 8 -88 1 -99 3 -115 24 -12 15 -21 19 -26 11 -9 -16 -90 -5
-113 15 -20 18 -30 20 -50 7z"/>
<path d="M3521 1543 c-1 -12 4 -25 11 -29 7 -5 4 -10 -10 -15 -14 -5 -20 -14
-16 -24 5 -11 2 -14 -10 -9 -11 4 -16 1 -16 -11 0 -11 5 -15 15 -11 20 7 20
-21 0 -41 -11 -11 -13 -19 -5 -28 6 -7 8 -19 5 -27 -6 -15 -53 -43 -67 -40 -5
1 -8 -3 -8 -8 0 -14 17 -12 43 5 12 8 32 13 45 12 28 -2 28 -5 0 -17 -25 -9
-16 -12 37 -12 46 0 55 2 55 12 0 5 -7 7 -15 4 -8 -4 -15 -1 -15 4 0 6 7 17
15 26 8 8 15 19 15 24 0 5 7 15 15 22 8 7 12 16 9 22 -3 5 -11 5 -19 -2 -9 -8
-15 -8 -20 0 -6 10 -5 12 18 14 6 0 13 14 15 30 4 33 -17 32 -34 -2 l-11 -22
-11 23 c-6 12 -11 35 -10 51 0 15 -4 31 -9 35 -6 3 -13 13 -16 21 -4 10 -6 8
-6 -7z"/>
<path d="M4485 1410 c4 -6 2 -17 -4 -24 -6 -7 -9 -21 -5 -30 3 -9 1 -16 -5
-16 -6 0 -16 12 -21 26 -15 39 -33 19 -27 -30 4 -26 1 -47 -8 -59 -9 -13 -14
-15 -17 -5 -3 7 -5 -1 -5 -18 l0 -31 24 25 c13 14 23 38 24 56 0 17 3 25 6 18
2 -6 9 -10 14 -6 5 3 9 -4 9 -15 0 -31 11 -50 25 -45 7 3 18 -4 25 -15 6 -12
16 -21 22 -21 6 0 4 8 -6 18 -15 17 -15 22 -1 48 l15 29 0 -25 c0 -27 16 -50
35 -50 5 0 2 5 -7 11 -26 15 -22 26 12 33 23 4 30 11 30 28 0 13 3 34 6 48 l5
25 -15 -25 c-8 -14 -15 -36 -16 -49 0 -21 -13 -23 -16 -3 -8 46 -19 72 -31 72
-9 0 -13 -6 -9 -15 7 -19 -8 -19 -27 0 -9 8 -13 24 -10 35 4 14 0 20 -11 20
-10 0 -14 -5 -11 -10z"/>
</g>
</svg>
