<?xml version="1.0" standalone="no"?>
<!DOCTYPE svg PUBLIC "-//W3C//DTD SVG 20010904//EN"
 "http://www.w3.org/TR/2001/REC-SVG-20010904/DTD/svg10.dtd">
<svg version="1.0" xmlns="http://www.w3.org/2000/svg"
 width="100%" height="100%" viewBox="0 0 1200.000000 799.000000"
 preserveAspectRatio="xMidYMid meet">
<metadata>
Created by potrace 1.13, written by Peter Selinger 2001-2015
</metadata>
<g transform="translate(0.000000,799.000000) scale(0.100000,-0.100000)"
fill="#000000" stroke="none">
<path d="M0 7970 c0 -10 6 -21 13 -23 10 -4 10 -6 0 -6 -16 -1 -17 -51 -2 -51
8 0 8 -4 2 -12 -12 -17 -16 -431 -3 -423 5 3 12 0 16 -6 5 -8 12 -4 24 11 11
15 19 19 24 11 4 -6 2 -11 -3 -11 -6 0 -11 -7 -11 -16 0 -13 -7 -15 -29 -11
l-29 6 -1 -481 c-2 -462 -1 -480 16 -460 12 15 22 19 32 13 11 -7 9 -10 -8
-16 -12 -3 -19 -10 -16 -15 3 -4 -2 -10 -10 -13 -12 -5 -14 -180 -15 -1332 0
-1259 1 -1326 17 -1321 21 6 201 53 693 181 200 52 370 95 377 95 7 0 13 1 13
3 0 1 3 31 5 67 3 36 15 196 26 355 56 782 56 781 115 820 25 16 34 16 168 1
77 -10 174 -21 213 -25 81 -9 106 -24 123 -76 16 -48 -79 -1294 -101 -1321 -5
-6 -5 -15 -1 -19 4 -5 2 -5 -4 -2 -7 4 -14 0 -18 -8 -7 -20 -37 -19 -203 4
-128 18 -277 34 -225 24 12 -2 22 -11 22 -20 0 -11 -6 -14 -22 -9 -13 4 -35 8
-51 10 -30 2 -59 23 -32 23 8 0 15 -4 15 -9 0 -4 5 -8 10 -8 19 0 10 28 -10
33 -13 3 -22 17 -26 36 -4 17 -11 31 -17 31 -30 0 -275 -64 -296 -77 -22 -14
-23 -19 -17 -82 3 -36 8 -113 12 -171 6 -127 9 -139 37 -145 12 -3 186 -30
387 -61 414 -63 448 -64 594 -14 95 32 231 72 256 75 8 1 28 8 44 16 l29 13
-6 107 -5 107 36 16 c31 13 11 12 -24 -1 -7 -3 -13 22 -18 69 -4 45 -12 77
-21 84 -8 6 -92 21 -187 33 -95 12 -174 24 -176 26 -3 2 0 63 4 136 l9 132
115 29 c63 16 188 49 278 74 90 25 166 44 169 41 2 -3 14 -182 25 -399 12
-216 24 -397 29 -402 13 -15 288 -46 424 -48 143 -2 165 2 323 64 l102 40 0
46 c0 26 -4 130 -10 232 -5 102 -12 264 -15 360 -5 125 -11 179 -20 189 -8 8
-36 16 -64 19 -117 11 -8 47 142 47 59 0 107 3 107 6 0 4 -10 7 -22 7 -13 0
-63 1 -113 2 -49 1 -103 -3 -119 -9 -31 -13 -50 -6 -26 9 13 9 13 10 0 11 -8
1 -22 1 -30 0 -12 -1 -12 0 -2 7 16 11 2 24 -49 46 -24 11 -28 15 -14 16 11 0
34 -8 50 -18 27 -17 33 -17 55 -4 l25 14 -24 -19 c-16 -14 -20 -22 -12 -27 7
-4 27 6 47 23 19 17 43 31 54 31 10 0 25 7 34 15 8 8 21 13 28 10 10 -4 14 4
15 27 0 20 -1 24 -4 11 -3 -16 -12 -23 -26 -23 -13 0 -31 -6 -42 -14 -11 -7
-33 -15 -50 -18 -16 -3 -38 -9 -48 -13 -13 -5 -16 -4 -11 8 7 19 -33 32 -69
24 l-22 -6 23 16 c25 18 30 53 6 53 -8 0 -12 5 -9 11 4 6 13 8 20 5 12 -4 31
22 22 30 -8 8 -74 -23 -102 -48 -38 -35 -47 -27 -11 11 l27 28 -28 6 c-37 7
-55 -9 -51 -47 2 -24 -1 -32 -16 -34 -10 -2 -22 2 -27 10 -7 11 -9 10 -9 -2 0
-10 -3 -11 -11 -3 -16 16 -25 133 -10 133 9 0 11 -9 6 -30 -9 -41 2 -70 27
-70 14 0 18 -5 14 -15 -3 -8 -1 -15 4 -15 6 0 9 33 7 79 -1 45 -6 77 -11 73
-5 -3 -6 2 -3 12 6 14 4 15 -15 5 -21 -11 -21 -12 -3 -25 10 -8 14 -14 9 -14
-6 0 -15 5 -21 11 -8 8 -16 4 -28 -15 -18 -27 -18 -69 0 -166 l7 -35 -20 24
c-14 18 -19 34 -15 57 7 39 -19 73 -41 55 -7 -6 -17 -7 -21 -3 -5 4 -5 -1 -2
-10 9 -25 0 -22 -14 3 -8 15 -8 19 0 15 15 -10 14 -6 -15 58 -14 31 -23 60
-20 65 3 5 -1 12 -10 15 -23 9 -25 8 -15 -11 6 -10 19 -40 31 -68 l21 -50 -28
32 c-30 33 -83 51 -83 27 0 -8 -4 -14 -10 -14 -5 0 -12 -11 -16 -25 -5 -20 -9
-23 -20 -14 -15 12 -19 -1 -6 -16 5 -6 14 -23 20 -38 l12 -28 -45 27 c-59 34
-103 35 -153 1 -35 -23 -40 -24 -44 -9 -6 22 4 46 20 49 16 4 16 -24 0 -30 -7
-3 -8 -6 -3 -6 6 0 24 11 40 25 22 19 24 23 7 14 -18 -9 -23 -8 -28 4 -4 11
-13 12 -36 5 -17 -4 -35 -6 -39 -3 -5 3 -9 -1 -9 -8 0 -9 -3 -9 -10 2 -8 12
-10 10 -10 -8 0 -14 -5 -22 -12 -20 -19 7 -20 24 -2 42 12 13 13 20 5 30 -9
10 -9 15 -1 18 6 2 8 11 4 21 -7 18 -17 18 -56 2 -11 -4 -18 -3 -18 4 0 6 7
11 15 11 9 0 12 6 9 15 -5 13 -2 14 21 5 15 -6 30 -8 33 -5 3 3 0 5 -6 5 -7 0
-12 5 -12 11 0 6 7 9 15 5 8 -3 15 -1 15 3 0 5 -7 12 -16 15 -22 8 -26 8 -19
-4 4 -7 -6 -9 -29 -7 -20 3 -39 0 -42 -5 -4 -6 -10 -5 -15 3 -15 24 -10 29 21
23 30 -6 42 8 19 22 -8 5 -6 10 5 16 24 13 38 1 26 -22 -15 -29 -12 -35 9 -16
14 13 21 14 26 6 6 -9 10 -9 16 1 12 19 11 31 -2 24 -15 -10 -52 32 -42 48 4
6 -10 -3 -32 -21 -41 -33 -55 -39 -55 -22 0 6 11 16 25 22 15 7 24 17 21 25
-4 8 2 13 16 13 21 0 21 0 3 14 -11 8 -25 11 -33 8 -8 -3 -18 1 -23 9 -7 12
-9 12 -9 0 0 -7 -10 -22 -22 -32 -27 -24 -36 -24 -15 -1 10 10 17 25 17 34 0
8 11 20 25 26 30 14 46 16 26 3 -9 -6 -10 -11 -2 -15 6 -4 11 -2 11 4 0 6 6 8
13 4 10 -6 10 -4 0 7 -18 19 -16 29 7 29 13 0 20 7 20 20 0 11 -7 20 -15 20
-8 0 -15 -4 -15 -10 0 -5 5 -10 12 -10 6 0 8 -3 5 -6 -4 -4 -14 -1 -23 7 -23
19 -42 20 -49 2 -3 -9 -3 -18 0 -21 3 -3 5 0 5 6 0 7 9 12 20 12 11 0 20 -4
20 -9 0 -10 -38 -24 -59 -21 -8 1 -10 -3 -5 -11 5 -8 3 -9 -7 -3 -8 5 -21 9
-29 9 -8 0 -15 6 -14 13 3 36 5 42 15 42 6 0 8 -9 4 -22 -7 -23 -7 -23 10 1
15 19 15 25 4 32 -8 5 -23 6 -34 4 -11 -3 -15 -2 -8 1 7 3 9 12 6 20 -3 9 1
14 13 14 15 0 16 2 5 9 -11 7 -11 9 0 13 24 9 2 19 -25 12 -25 -6 -37 -24 -16
-24 6 0 10 -4 10 -10 0 -11 -43 -14 -53 -3 -4 3 3 17 15 30 20 22 21 23 2 24
-16 0 -15 2 5 10 16 6 28 6 38 -2 7 -7 16 -9 20 -5 3 3 1 6 -5 6 -6 0 -9 7 -6
15 5 11 -1 15 -24 15 -17 0 -34 -4 -37 -10 -3 -5 -19 -7 -34 -4 -23 5 -30 2
-33 -11 -3 -16 -4 -16 -16 -3 -10 13 -4 18 48 32 39 11 60 22 60 32 0 8 -5 12
-10 9 -5 -3 -10 2 -11 12 0 11 -3 13 -6 5 -6 -16 -33 3 -33 23 0 8 -13 13 -34
12 -35 -1 -66 16 -66 37 0 6 5 4 11 -4 8 -11 12 -12 16 -2 6 16 24 16 17 -1
-3 -10 5 -13 28 -11 46 2 46 2 53 24 5 15 15 20 42 20 52 0 35 10 -34 20 -36
5 -63 4 -70 -2 -17 -14 -17 4 0 21 10 11 7 13 -13 8 -14 -4 -32 -2 -40 3 -12
8 -11 10 5 10 11 0 25 8 32 19 9 14 9 18 0 17 -7 0 -12 4 -12 9 0 6 5 9 11 7
19 -4 27 17 12 32 -8 7 -34 16 -59 20 -33 4 -39 3 -24 -4 17 -9 15 -10 -11 -7
-22 2 -30 -1 -27 -9 2 -6 13 -10 24 -7 10 3 19 0 19 -6 0 -6 -11 -11 -25 -11
-14 0 -25 5 -25 11 0 8 -4 8 -12 1 -11 -8 -38 -10 -69 -3 -4 0 -10 8 -13 17
-4 10 -2 13 6 8 17 -11 68 -12 68 -2 0 4 -7 8 -15 8 -18 0 -19 9 -4 30 8 11
12 12 16 3 5 -15 69 -18 77 -4 3 5 0 9 -7 8 -47 -1 -65 4 -63 21 1 13 -9 19
-39 23 -42 7 -39 10 10 13 17 0 33 6 38 13 4 7 14 10 22 7 7 -3 22 -1 32 5 11
6 13 11 6 12 -7 1 -17 2 -22 3 -5 0 -13 4 -17 9 -11 10 -21 9 -36 -6 -39 -39
-140 -56 -158 -27 -4 6 -14 4 -26 -5 -10 -8 -14 -15 -9 -15 6 -1 24 -4 40 -6
17 -3 42 -6 57 -7 15 -1 30 -6 34 -9 4 -4 18 -5 30 -2 15 4 24 2 24 -5 0 -6
-4 -11 -9 -11 -5 0 -12 -8 -15 -18 -5 -16 -14 -18 -63 -14 -52 4 -56 3 -49
-14 6 -15 5 -16 -5 -7 -10 10 -9 15 1 28 10 12 10 15 -4 15 -12 0 -16 5 -12
18 4 11 1 19 -6 20 -44 3 -99 22 -65 22 18 0 67 42 67 57 0 16 -35 22 -55 10
-16 -8 -17 -6 -13 22 2 17 1 31 -4 31 -8 0 -12 -28 -10 -61 1 -15 -2 -15 -33
-1 -19 9 -35 19 -35 23 0 13 18 20 25 9 3 -5 13 -10 21 -10 17 0 13 44 -4 46
-7 1 -16 2 -22 3 -5 0 -10 5 -10 10 0 5 15 5 35 1 40 -9 59 10 44 45 -6 17 -8
16 -9 -10 -1 -16 -4 -24 -7 -17 -3 8 -9 10 -16 4 -7 -5 -21 -6 -32 -1 -17 6
-17 8 -2 8 22 1 22 10 0 27 -13 9 -22 9 -30 2 -7 -6 -13 -7 -13 -2 0 4 -11 -3
-25 -16 -14 -13 -25 -20 -25 -15 0 5 -6 1 -13 -9 -7 -10 -22 -17 -32 -15 -14
3 -8 9 22 24 26 12 37 23 30 27 -8 5 -5 8 7 8 14 0 17 6 14 25 -3 14 -1 28 4
31 12 8 0 24 -15 18 -7 -2 -20 9 -30 26 -11 18 -14 30 -7 30 6 0 9 4 6 8 -6
11 75 9 92 -1 6 -5 16 -5 22 -2 6 3 7 -1 4 -10 -5 -11 -2 -14 10 -9 10 4 25
-1 36 -11 18 -16 20 -16 35 -1 15 15 14 16 -9 16 -14 0 -29 7 -33 15 -5 8 -26
16 -47 19 -22 3 -42 10 -46 17 -5 7 -10 8 -14 1 -8 -13 -66 -12 -66 1 0 6 -10
2 -22 -9 -12 -10 -18 -13 -14 -6 4 6 3 12 -3 12 -5 0 -12 -6 -14 -12 -4 -10
-6 -10 -6 0 -1 17 -38 15 -44 -2 -6 -16 -47 -10 -47 6 0 5 8 7 19 3 13 -4 20
0 24 15 5 19 2 21 -25 18 -26 -2 -32 1 -34 20 -4 24 11 31 19 8 3 -9 15 -12
31 -9 20 4 26 1 26 -11 0 -10 4 -15 9 -12 5 4 11 2 13 -2 4 -11 78 -3 78 9 0
5 -11 9 -25 9 -28 0 -49 37 -39 65 10 26 -16 16 -28 -10 -11 -25 -28 -34 -28
-14 0 5 -4 8 -9 4 -5 -3 -12 -1 -16 5 -4 6 -11 7 -17 4 -9 -6 -27 12 -28 27 0
9 33 6 40 -3 3 -3 14 -8 25 -10 17 -2 19 2 17 26 -2 16 0 36 4 45 4 9 8 21 8
26 1 6 11 11 24 13 12 2 22 7 22 12 0 9 -49 -2 -70 -15 -7 -4 -9 -18 -6 -31 7
-25 -2 -30 -65 -37 -15 -1 -33 -7 -40 -13 -26 -20 -49 -24 -49 -9 0 8 -5 15
-11 15 -5 0 -7 -4 -4 -10 9 -15 -4 -12 -21 5 -15 15 -11 18 21 18 30 0 36 -3
29 -14 -4 -7 -1 -10 7 -7 8 3 13 13 12 22 -1 12 4 15 15 11 8 -3 19 0 24 7 6
10 8 10 8 1 0 -18 47 -16 53 1 4 11 -6 15 -40 18 -24 2 -47 0 -49 -4 -3 -4
-11 -5 -18 -2 -8 3 -17 1 -21 -5 -9 -16 -25 -13 -25 4 0 8 -7 15 -15 15 -8 0
-15 5 -15 10 0 6 -7 10 -16 10 -9 0 -27 9 -41 20 -22 17 -23 20 -7 20 16 0 16
2 4 10 -12 7 -10 9 7 8 13 -2 19 -7 15 -16 -3 -8 1 -18 9 -23 22 -13 33 -11
20 5 -8 9 -8 16 -2 20 5 4 12 2 16 -4 4 -7 12 -7 25 0 26 14 34 12 21 -4 -16
-19 7 -27 89 -31 49 -2 59 -1 40 6 -13 6 -35 9 -49 7 -13 -2 -26 2 -28 8 -4
13 55 13 75 0 20 -12 40 10 23 26 -10 11 -11 9 -6 -7 6 -18 5 -18 -7 -4 -9 11
-22 13 -46 8 -20 -4 -32 -3 -32 4 0 5 -9 2 -20 -8 -18 -17 -20 -17 -14 -2 4
12 1 17 -10 17 -9 0 -21 9 -28 20 -7 11 -19 20 -27 20 -11 0 -11 -4 3 -19 16
-18 16 -18 -16 -15 -67 7 -98 15 -93 25 4 5 13 9 21 9 10 0 12 -5 8 -12 -5 -9
-2 -9 9 1 13 10 20 11 31 2 11 -9 15 -7 19 10 4 14 11 20 21 16 9 -4 16 -2 16
3 0 6 -5 10 -11 10 -5 0 -8 4 -4 9 3 5 1 12 -5 16 -16 10 -2 25 23 25 18 0 19
-2 7 -10 -13 -8 -13 -10 2 -10 9 0 24 3 33 6 13 5 11 9 -10 20 -19 10 -32 11
-45 4 -25 -14 -31 -13 -60 10 l-25 20 26 -9 c27 -10 109 -3 109 8 0 9 -54 6
-69 -4 -6 -3 -11 -1 -11 4 0 6 -12 11 -26 11 -14 0 -23 4 -19 10 4 6 15 6 32
-1 14 -5 28 -7 31 -4 3 3 -1 5 -9 5 -9 1 -5 8 10 21 13 11 21 22 17 26 -3 4
-17 -4 -30 -16 -23 -22 -25 -22 -50 -6 -21 14 -24 20 -15 32 7 7 17 12 23 10
14 -5 35 15 29 29 -2 6 6 15 19 19 22 8 22 8 -5 12 -20 3 -27 9 -23 19 3 8 1
14 -4 14 -6 0 -10 -4 -10 -8 0 -4 -8 -8 -18 -9 -16 -1 -28 26 -13 28 3 0 16 2
29 5 13 2 25 -2 28 -10 9 -23 49 -16 61 10 9 19 8 24 -3 24 -8 0 -14 -7 -14
-14 0 -12 -6 -13 -32 -5 -66 21 -65 20 -43 29 19 8 18 9 -3 9 -16 1 -26 -6
-29 -19 -3 -11 -12 -20 -19 -20 -8 0 -14 -5 -14 -11 0 -5 5 -7 10 -4 6 3 10 2
10 -4 0 -5 -6 -11 -12 -14 -7 -2 5 -8 26 -12 l39 -8 -27 -14 c-15 -8 -30 -12
-34 -9 -3 3 1 7 9 7 8 1 1 4 -16 8 -16 4 -29 13 -27 19 1 9 -3 9 -18 0 -21
-13 -25 -24 -12 -30 4 -1 -5 -16 -20 -32 -21 -21 -28 -24 -28 -12 0 9 4 16 9
16 5 0 11 11 13 25 4 16 1 25 -8 25 -18 0 -27 17 -13 26 7 4 9 3 6 -3 -4 -6 2
-13 12 -16 18 -4 51 23 51 42 0 5 10 11 23 13 17 2 21 8 19 27 -3 19 0 22 13
17 21 -8 65 3 65 16 0 6 -6 8 -14 5 -9 -4 -12 0 -9 13 4 15 1 18 -16 13 -12
-3 -21 -1 -21 6 0 6 7 11 16 11 8 0 12 5 8 11 -5 8 -1 8 14 0 14 -7 23 -8 27
-1 12 19 26 0 15 -20 -8 -16 -8 -18 5 -14 20 8 19 -6 -2 -22 -16 -12 -16 -15
-3 -24 24 -15 35 -6 34 28 -2 37 13 41 47 12 17 -14 19 -18 7 -14 -12 4 -18 1
-18 -9 0 -9 -8 -21 -17 -26 -16 -9 -16 -10 -1 -11 9 0 19 -8 21 -17 4 -17 5
-17 6 0 1 22 21 23 21 0 0 -9 3 -13 7 -10 3 4 6 23 5 42 -1 19 4 37 10 41 8 5
9 2 5 -9 -3 -10 -2 -17 4 -17 5 0 12 6 15 14 3 8 12 12 20 9 8 -3 14 0 14 6 0
6 -4 11 -10 11 -17 0 -11 18 9 25 10 3 22 13 25 23 3 9 9 22 12 29 4 8 -9 11
-43 10 -37 -2 -48 2 -48 13 -1 27 -36 9 -48 -25 -2 -6 -10 -4 -20 4 -15 12
-20 10 -37 -10 -16 -20 -19 -21 -20 -7 0 10 9 22 21 29 l21 11 -22 15 c-21 15
-21 17 -5 25 11 7 21 6 28 -1 14 -14 30 -15 22 -1 -3 6 1 10 11 10 13 0 11 4
-7 19 -21 17 -26 18 -40 5 -8 -8 -24 -14 -33 -14 -10 0 -20 -8 -23 -18 -3 -14
-15 -19 -44 -20 -21 -1 -39 3 -39 8 0 6 -12 8 -27 5 -16 -2 -34 0 -42 4 -19
12 -6 45 15 37 18 -7 42 14 36 32 -5 15 3 15 30 1 15 -8 27 -8 45 2 22 12 23
14 6 20 -13 6 -14 8 -3 8 8 1 21 10 28 21 13 22 3 27 -16 8 -8 -8 -15 -8 -27
2 -15 12 -16 10 -10 -23 5 -26 4 -37 -5 -37 -7 0 -10 7 -6 15 3 8 1 15 -4 15
-5 0 -7 7 -4 15 4 10 0 15 -16 15 -11 0 -19 4 -16 9 7 11 -41 24 -56 15 -7 -5
-7 -8 0 -13 7 -4 8 -12 2 -21 -5 -8 -10 -12 -12 -10 -2 3 -13 19 -26 37 -12
18 -22 37 -22 43 0 23 -44 5 -50 -20 -7 -29 -60 -43 -60 -16 0 9 -8 16 -17 16
-15 0 -16 2 -3 10 13 9 13 11 0 19 -8 6 -11 14 -6 18 5 4 11 2 13 -4 3 -7 13
-13 24 -13 22 0 25 -20 7 -39 -11 -10 -9 -12 7 -9 16 3 20 11 19 41 -1 34 8
48 19 30 5 -10 -1 12 -9 32 -4 11 0 15 17 14 21 0 21 -1 6 -8 -16 -6 -17 -9
-4 -19 8 -7 22 -9 32 -6 14 6 16 3 10 -17 l-7 -24 24 25 25 25 -24 3 c-19 3
-23 7 -17 25 9 29 10 31 29 23 9 -3 13 -10 10 -16 -4 -6 -11 -7 -17 -4 -7 4
-8 2 -4 -4 4 -7 17 -12 29 -12 19 0 18 -3 -13 -35 -38 -39 -32 -64 11 -49 l24
8 -22 5 -22 6 24 12 c16 7 23 7 18 0 -4 -6 2 -8 15 -5 26 7 29 -7 5 -20 -13
-8 -10 -9 13 -9 16 0 24 2 17 4 -16 6 6 43 24 43 17 0 17 -17 1 -23 -7 -2 -10
-7 -7 -11 4 -4 21 8 39 26 26 27 31 29 25 11 -3 -12 -1 -24 5 -28 7 -4 14 1
16 13 5 16 9 18 29 8 24 -11 23 -36 -2 -36 -8 0 -13 -5 -11 -11 2 -6 8 -10 13
-9 6 1 12 -9 15 -21 5 -20 7 -20 21 -7 15 16 67 18 59 2 -2 -5 -10 -8 -17 -6
-7 2 -13 -2 -13 -8 0 -5 -13 -10 -30 -10 -16 0 -30 -4 -30 -9 0 -5 -9 -11 -20
-14 -21 -5 -37 -33 -25 -45 3 -4 16 5 27 21 13 18 29 27 48 27 16 0 33 6 37
13 9 14 43 19 43 6 0 -4 -5 -11 -10 -14 -14 -9 -2 -25 18 -24 10 0 12 3 5 6
-10 3 -10 10 -2 24 7 15 7 24 -1 34 -10 12 -7 12 19 2 24 -9 34 -8 43 1 9 9 5
13 -20 18 -27 6 -30 9 -21 25 5 11 6 19 2 19 -4 0 1 6 12 13 10 8 15 19 11 25
-4 7 -2 12 5 12 8 0 8 4 -1 15 -10 12 -6 21 26 50 24 21 33 35 24 35 -13 0
-13 1 0 10 13 8 12 10 -3 10 -9 0 -27 -11 -39 -25 -12 -14 -27 -24 -34 -21
-18 7 -40 -42 -26 -56 17 -17 15 -31 -4 -24 -8 3 -12 2 -9 -4 7 -11 -30 -51
-39 -43 -3 3 -3 17 0 29 6 24 -4 31 -21 15 -6 -5 -21 -12 -35 -15 -24 -7 -24
-6 -6 8 17 14 17 16 3 22 -24 9 -21 17 13 38 17 9 28 22 24 27 -4 6 -16 1 -31
-13 l-24 -23 -20 25 c-11 14 -18 35 -16 48 3 12 0 22 -4 22 -5 0 -9 -7 -9 -16
0 -11 -5 -14 -16 -10 -9 3 -18 6 -20 6 -2 0 -4 8 -5 18 0 12 -3 10 -10 -7 -5
-13 -7 -33 -4 -45 3 -12 2 -15 -1 -8 -5 10 -9 9 -20 -5 -8 -11 -13 -13 -14 -5
0 7 -12 18 -27 24 -27 11 -27 12 -5 15 12 3 22 9 22 14 0 6 -5 7 -12 3 -7 -4
-8 -3 -4 4 5 8 0 12 -13 12 -12 0 -21 6 -21 14 0 8 -7 16 -15 20 -18 7 -20
-10 -2 -18 6 -3 0 -5 -14 -3 -14 1 -33 -4 -42 -11 -10 -9 -17 -10 -22 -2 -3 5
-1 10 4 10 6 0 11 7 11 15 0 8 6 12 14 9 7 -3 16 2 19 10 8 19 38 21 56 4 10
-10 15 -10 18 -1 2 7 12 9 20 6 12 -5 15 -2 10 9 -3 9 0 19 8 22 21 8 14 -34
-7 -45 -10 -5 -18 -16 -18 -23 0 -20 27 -27 40 -10 7 8 19 14 26 14 8 0 14 7
14 16 0 8 -3 13 -7 11 -5 -3 -14 1 -21 9 -10 11 -8 15 8 24 11 6 20 14 20 18
0 13 -44 9 -58 -5 -7 -7 -22 -13 -33 -13 -10 0 -19 -6 -19 -12 -1 -8 -6 -6
-14 5 -7 9 -19 17 -25 17 -7 0 -9 5 -5 11 3 6 15 9 25 6 10 -3 22 -1 25 5 3 5
12 7 20 4 7 -3 16 -1 20 5 3 6 13 8 21 5 9 -4 13 -1 11 6 -6 17 -71 16 -85 -2
-7 -8 -12 -10 -13 -5 0 22 17 32 50 31 58 -3 90 -16 90 -37 0 -10 5 -19 11
-19 5 0 8 4 4 9 -3 6 5 15 17 22 21 11 22 11 9 -5 -21 -25 -6 -31 19 -6 11 11
24 18 29 16 5 -3 16 3 25 13 16 18 15 18 -14 15 -16 -2 -30 1 -30 6 0 6 9 10
20 10 13 0 22 9 26 25 3 14 11 22 17 18 5 -3 7 -1 3 5 -3 6 -2 13 4 17 5 3 10
11 10 16 0 5 -11 2 -25 -7 -19 -12 -24 -22 -19 -37 4 -14 2 -18 -7 -15 -8 3
-22 1 -31 -4 -21 -10 -24 2 -5 21 10 10 8 12 -8 9 -11 -2 -20 -8 -20 -13 -2
-22 -17 -55 -26 -55 -6 0 -8 4 -4 9 3 5 1 12 -4 16 -6 3 -8 11 -6 18 7 17 -67
20 -80 3 -5 -7 -23 -19 -40 -27 -25 -12 -34 -13 -55 -2 -14 7 -24 20 -22 28 4
20 -22 29 -45 16 -15 -9 -13 -10 10 -5 17 4 27 2 27 -5 0 -6 -5 -11 -12 -11
-6 0 -19 -7 -29 -15 -11 -11 -26 -14 -43 -9 -42 10 -31 31 13 24 8 -1 12 4 8
13 -8 21 39 38 88 31 67 -9 164 -10 159 -2 -3 5 -1 8 5 8 5 0 12 -5 14 -10 3
-6 4 -5 3 2 -2 7 -9 13 -17 13 -8 0 -20 4 -26 8 -8 5 -13 4 -13 -2 0 -6 -9
-11 -20 -11 -13 0 -18 5 -14 15 9 22 -5 18 -27 -7 -10 -13 -18 -17 -19 -10 0
6 9 21 20 32 25 25 25 33 1 25 -11 -3 -22 -1 -26 4 -3 7 0 8 10 5 11 -5 14 -2
9 10 -12 31 -30 16 -25 -22 2 -10 -12 -12 -56 -9 -32 3 -60 6 -63 6 -3 1 14
11 38 22 23 11 42 23 42 28 0 4 12 13 28 20 15 7 24 10 21 6 -4 -3 3 -17 15
-29 19 -21 23 -22 45 -8 22 13 23 13 18 -2 -8 -20 11 -21 36 -2 17 13 8 33
-10 23 -5 -3 -15 -2 -25 2 -14 5 -13 8 6 22 31 24 70 8 62 -25 -5 -20 -3 -23
14 -19 11 3 20 9 20 13 0 5 9 6 20 3 29 -8 25 2 -11 25 -19 12 -27 22 -20 26
6 4 11 2 11 -4 0 -6 5 -8 10 -5 7 5 8 11 1 19 -7 8 -6 17 0 26 8 11 12 12 16
3 2 -7 14 -13 24 -13 28 0 61 19 54 30 -3 6 1 7 11 3 12 -4 15 -2 12 8 -3 8
-14 12 -24 10 -10 -2 -31 -4 -46 -5 -16 0 -28 -4 -28 -8 0 -5 -6 -8 -13 -8
-15 0 -48 -36 -40 -44 4 -3 1 -6 -5 -6 -7 0 -12 4 -12 10 0 5 -7 7 -15 4 -11
-5 -13 -2 -9 10 3 9 14 16 23 17 10 0 11 2 4 6 -7 2 -27 -3 -44 -11 -32 -16
-59 -21 -59 -10 0 3 5 15 11 27 9 21 9 21 -5 3 -8 -10 -19 -15 -24 -12 -5 3
-18 -1 -28 -9 -18 -14 -18 -14 6 -15 25 -1 25 -1 3 -10 -13 -5 -23 -14 -23
-19 0 -12 -29 -41 -41 -41 -5 0 -9 5 -9 10 0 6 7 10 15 10 8 0 15 3 15 8 0 12
-84 9 -95 -4 -5 -7 -21 -15 -35 -19 -23 -7 -24 -7 -10 10 13 16 13 18 0 13
-16 -5 -32 -65 -19 -73 15 -10 -2 -34 -18 -28 -11 4 -14 2 -9 -5 4 -7 14 -12
22 -12 11 0 13 -6 9 -22 -6 -17 -4 -20 9 -15 9 4 16 2 16 -3 0 -6 -6 -10 -14
-10 -9 0 -17 -15 -21 -40 -4 -24 -13 -41 -21 -41 -8 -1 -18 -3 -24 -4 -5 -1
-15 -3 -21 -4 -6 0 -9 -8 -5 -16 3 -9 -3 -19 -15 -25 -11 -6 -18 -14 -15 -18
2 -4 -7 -7 -20 -7 -13 0 -24 5 -24 11 0 14 28 27 40 19 4 -3 10 2 14 10 3 9
-6 23 -24 37 -16 11 -27 26 -23 31 3 5 10 2 15 -7 8 -15 12 -15 39 4 16 12 29
17 29 12 0 -6 -7 -12 -15 -16 -8 -3 -15 -9 -15 -14 0 -5 15 -3 34 6 35 16 56
52 30 52 -8 0 -14 -5 -14 -12 0 -12 -29 21 -30 35 0 4 7 7 16 7 13 0 14 3 5
13 -6 8 -8 17 -4 20 3 4 -1 7 -11 7 -12 0 -16 -5 -12 -17 7 -21 -10 -51 -21
-39 -4 5 -2 11 5 13 21 8 13 25 -10 21 -15 -2 -22 -9 -20 -20 2 -12 -2 -16
-12 -12 -8 3 -24 -8 -40 -29 -31 -40 -31 -44 -8 -50 16 -4 3 -11 -56 -32 -8
-3 -16 -14 -19 -25 -3 -11 -12 -20 -21 -20 -13 0 -13 2 1 18 18 20 23 47 7 37
-5 -3 -7 0 -4 9 3 8 12 12 19 10 13 -5 65 36 65 53 0 5 18 27 40 48 22 21 40
35 40 31 0 -5 7 -3 15 4 19 16 19 26 0 34 -9 3 -23 -3 -32 -14 -11 -13 -30
-20 -50 -20 -27 0 -35 5 -43 26 -12 31 -13 44 -1 26 6 -10 10 -7 15 12 3 14
10 26 15 26 11 0 2 -38 -10 -46 -17 -10 -9 -24 15 -24 25 0 86 28 98 45 5 6
12 5 20 -3 9 -9 9 -12 0 -12 -7 0 -12 -4 -12 -10 0 -5 7 -10 16 -10 8 0 12 -4
9 -10 -3 -5 -2 -10 2 -10 5 0 14 9 21 20 10 16 10 20 0 21 -7 0 -4 4 7 9 19 8
19 9 -2 9 -33 1 -53 12 -53 27 0 18 8 18 26 -1 21 -21 34 -19 34 6 0 11 4 17
10 14 5 -3 22 0 37 7 15 7 54 13 86 13 31 0 57 3 57 7 0 4 -4 8 -8 8 -5 0 -17
7 -28 16 -16 13 -16 15 -2 10 10 -3 20 -1 24 5 3 6 12 8 19 5 7 -2 21 3 32 13
10 10 24 16 31 13 6 -2 12 1 12 8 0 6 -5 8 -10 5 -6 -3 -10 -1 -10 5 0 7 -7 5
-16 -4 -19 -19 -44 -21 -44 -3 -1 7 -6 5 -14 -6 -14 -18 -14 -17 -21 2 -5 17
-12 20 -34 16 -20 -3 -28 -1 -28 10 0 8 4 15 9 15 4 0 8 7 8 15 0 8 5 15 10
15 6 0 10 5 10 12 0 6 -7 4 -18 -5 -10 -10 -24 -17 -30 -17 -6 0 -10 -8 -10
-17 0 -10 -3 -26 -7 -36 -6 -14 -4 -16 11 -10 12 4 15 3 10 -5 -4 -7 -16 -12
-27 -12 -10 0 -19 -4 -19 -10 0 -5 10 -10 22 -10 21 0 21 0 2 -15 -17 -13 -20
-12 -33 5 -7 11 -19 20 -27 20 -25 0 -23 16 3 18 32 2 45 11 37 23 -3 5 -2 15
3 22 16 21 9 40 -14 42 -13 1 -23 -1 -23 -5 0 -4 -14 -11 -32 -16 -17 -5 -33
-15 -36 -22 -5 -16 25 -16 31 1 4 9 6 8 6 -2 1 -10 6 -10 27 4 14 9 28 14 31
11 3 -3 -2 -8 -11 -12 -9 -3 -16 -12 -16 -18 0 -8 -18 -12 -52 -12 -44 1 -53
-2 -56 -18 -3 -13 0 -16 9 -10 19 11 52 13 41 2 -5 -5 -22 -10 -38 -12 -27 -3
-50 -36 -24 -36 6 0 8 -5 4 -12 -5 -8 -11 -6 -20 6 -7 10 -17 15 -23 12 -14
-9 -2 -36 16 -36 8 0 11 -4 8 -10 -3 -5 -15 -10 -25 -10 -14 0 -18 7 -18 31 1
20 7 33 17 36 24 7 96 113 76 113 -8 0 -15 5 -15 10 0 6 -8 10 -19 10 -10 0
-24 7 -31 15 -10 12 -10 15 3 15 9 0 19 5 22 10 4 6 -5 10 -21 10 -23 0 -26
-3 -22 -25 3 -13 0 -26 -6 -29 -7 -3 -6 -8 4 -16 13 -10 13 -11 0 -7 -10 3
-15 16 -14 41 1 23 -3 36 -12 36 -8 0 -11 -9 -8 -25 3 -18 1 -23 -10 -19 -8 3
-12 13 -9 24 4 14 -1 18 -21 16 -14 0 -26 -4 -26 -8 0 -5 -5 -8 -11 -8 -5 0
-7 5 -4 11 5 7 -11 9 -51 4 -33 -3 -68 -6 -79 -6 -15 0 -17 -2 -6 -9 8 -4 21
-6 29 -2 10 4 13 1 8 -7 -5 -8 -19 -10 -37 -6 -18 4 -29 3 -29 -4 0 -6 -6 -11
-14 -11 -8 0 -16 -5 -18 -10 -4 -14 -48 -21 -48 -8 0 5 6 8 14 5 8 -3 13 1 12
11 -1 11 9 18 28 22 60 11 36 25 -44 27 -71 1 -80 -1 -80 -17z m2652 -3246
c15 -12 24 -25 21 -28 -4 -3 -1 -6 5 -6 6 0 14 -9 17 -20 5 -16 10 -18 25 -10
17 9 23 4 45 -31 32 -49 27 -81 -6 -48 -27 27 -80 49 -118 49 -33 0 -49 -16
-32 -33 16 -16 13 -31 -4 -17 -9 7 -26 9 -47 5 -50 -11 -111 -7 -144 10 -16 8
-26 15 -21 16 4 1 12 3 17 4 6 1 14 3 19 4 9 1 6 45 -4 61 -2 4 8 13 23 20 25
12 26 13 7 20 -31 11 -80 -17 -95 -56 -7 -18 -17 -31 -22 -28 -20 12 -5 -10
24 -37 18 -16 43 -29 56 -29 16 0 21 -4 16 -12 -6 -10 -4 -10 7 0 20 18 24 15
26 -23 1 -30 -2 -36 -25 -41 -58 -12 -113 -37 -127 -57 -13 -18 -17 -19 -24
-8 -5 8 -16 11 -25 8 -19 -8 -46 1 -46 15 0 5 5 6 10 3 6 -3 10 -2 10 4 0 5 3
16 6 25 3 9 1 16 -5 16 -6 0 -11 -8 -11 -17 0 -13 -3 -14 -11 -6 -9 9 -8 16 3
27 9 8 19 12 23 8 5 -4 5 -1 1 6 -10 16 2 52 17 52 7 0 20 -7 30 -14 15 -11
16 -19 8 -34 -14 -25 -2 -37 15 -14 10 12 13 13 14 3 0 -7 6 -11 15 -7 8 3 15
1 15 -4 0 -6 9 -10 20 -10 11 0 20 5 20 10 0 6 -4 10 -8 10 -5 0 -9 7 -9 15 0
8 4 15 9 15 4 0 8 5 8 10 0 15 -28 12 -58 -7 -15 -9 -24 -13 -20 -8 4 4 0 14
-10 21 -16 13 -16 13 1 14 9 0 17 -4 17 -10 0 -5 5 -10 11 -10 6 0 9 7 6 14
-4 11 -1 13 10 9 10 -4 14 -2 10 4 -4 6 -16 13 -27 16 -13 3 -18 1 -13 -6 4
-7 -1 -6 -10 2 -11 9 -17 10 -17 2 0 -6 -5 -11 -11 -11 -5 0 -7 5 -3 12 4 7
-6 2 -23 -10 -20 -14 -34 -18 -38 -12 -3 5 -2 10 4 10 6 0 8 8 5 18 -5 13 -4
14 4 3 5 -7 15 -10 21 -6 9 5 9 10 1 20 -7 8 -7 15 -1 19 5 4 13 1 16 -5 4 -5
13 -8 20 -5 8 3 16 0 18 -7 2 -7 2 9 0 34 -5 42 -3 48 28 73 28 24 40 28 80
24 25 -3 59 -14 75 -25 16 -11 41 -23 56 -26 14 -4 34 -10 45 -14 17 -6 17 -6
0 14 -12 14 -15 23 -7 28 6 4 8 16 4 28 -8 24 -9 25 58 -29z"/>
<path d="M2988 7142 c3 -832 0 -915 -28 -897 -5 3 -19 0 -31 -8 -23 -16 -11
-31 17 -20 12 4 15 3 10 -5 -5 -8 -2 -10 8 -6 13 5 16 -2 16 -40 0 -38 -3 -44
-16 -39 -13 5 -15 2 -9 -15 4 -15 2 -22 -7 -22 -8 0 -23 -6 -33 -14 -17 -12
-14 -13 23 -11 23 1 42 -1 42 -5 0 -13 -27 -19 -67 -14 l-38 4 30 -14 c17 -9
36 -15 43 -16 6 0 12 -4 12 -9 0 -12 -70 -8 -96 6 -23 13 -101 6 -111 -10 -4
-6 3 -8 17 -4 13 3 30 1 37 -5 9 -7 13 -7 13 1 0 6 5 11 10 11 6 0 10 -7 10
-16 0 -10 6 -14 15 -11 8 4 17 2 21 -4 3 -5 14 -7 25 -4 10 4 25 0 32 -7 12
-11 12 -15 -2 -25 -14 -11 -13 -12 7 -13 13 0 20 -4 17 -10 -3 -5 -2 -10 4
-10 5 0 12 6 14 13 3 7 6 4 6 -7 1 -15 -4 -17 -21 -11 -13 4 -34 8 -48 10 -14
1 -29 3 -34 4 -5 0 -3 8 4 16 8 9 9 15 2 15 -6 0 -14 -4 -17 -10 -10 -16 -25
-12 -25 6 0 10 -6 14 -15 10 -8 -3 -19 2 -24 11 -8 14 -12 15 -25 4 -9 -7 -16
-10 -16 -7 0 4 -7 1 -15 -8 -21 -21 -19 -29 5 -16 11 6 24 8 29 5 5 -3 11 -1
13 4 5 16 45 -22 53 -49 6 -20 5 -23 -6 -12 -7 6 -17 12 -21 12 -13 0 -9 -28
5 -33 6 -3 2 -6 -10 -6 -13 -1 -23 -6 -23 -11 0 -11 42 -4 72 11 24 13 28 11
28 -8 0 -14 -2 -15 -9 -5 -6 10 -12 7 -24 -12 -22 -33 -22 -34 8 -28 15 2 25
0 25 -7 0 -6 -7 -11 -15 -11 -8 0 -15 -4 -15 -10 0 -5 -16 0 -35 11 -19 12
-32 25 -29 30 3 5 -2 6 -9 3 -8 -3 -18 -20 -21 -38 -7 -37 -35 -75 -51 -69 -5
1 -10 -10 -11 -26 l-1 -29 22 24 c12 13 30 24 39 24 9 0 16 7 16 17 0 9 3 13
7 9 4 -3 13 6 20 21 7 16 11 20 8 10 -4 -15 -1 -17 18 -12 22 6 22 6 2 -10
-11 -9 -19 -23 -17 -30 2 -10 -3 -13 -15 -8 -16 5 -16 4 2 -14 16 -16 21 -17
23 -6 3 10 12 13 28 10 24 -4 33 6 14 18 -14 9 -12 26 3 24 27 -3 37 2 36 19
0 9 -3 12 -5 5 -3 -7 -12 -9 -20 -6 -19 7 -18 23 1 23 8 0 15 5 15 10 0 6 5
10 10 10 6 0 10 -5 10 -11 0 -11 30 -44 40 -44 12 0 40 -34 43 -52 1 -10 7
-24 11 -32 6 -9 5 -12 -1 -8 -6 4 -14 -1 -17 -10 -4 -10 -4 -14 0 -10 4 4 17
-9 28 -30 12 -20 28 -38 36 -40 12 -4 12 -3 1 5 -10 7 -10 11 -1 17 6 4 9 13
6 21 -3 8 0 11 10 7 8 -3 12 -8 10 -11 -3 -3 -1 -11 5 -18 7 -9 5 -18 -9 -32
-20 -20 -20 -20 6 -25 15 -2 36 -8 47 -12 17 -7 18 -6 8 6 -10 13 -7 15 23 15
27 0 31 -2 17 -9 -25 -14 -26 -14 -18 -27 5 -8 11 -8 21 1 8 6 14 7 14 2 0 -5
7 -10 15 -10 8 0 15 7 15 15 0 8 6 12 15 8 8 -3 15 -1 15 4 0 6 -7 10 -15 10
-8 0 -15 5 -15 10 0 13 10 13 48 -1 29 -10 36 -29 11 -29 -6 0 -7 5 -4 10 3 6
1 10 -4 10 -16 0 -13 -22 5 -49 14 -19 14 -25 3 -32 -11 -7 -10 -9 4 -9 10 0
22 11 27 26 9 24 11 24 27 8 11 -11 18 -13 21 -5 2 6 8 11 14 11 6 0 8 -6 5
-14 -4 -10 0 -12 14 -9 10 3 16 9 13 14 -3 5 2 12 10 15 24 9 19 23 -5 17 -16
-5 -20 -2 -18 12 5 23 47 40 45 18 0 -9 5 -18 12 -20 6 -3 12 3 13 14 0 16 1
16 9 -2 5 -11 9 -16 9 -11 1 5 7 3 14 -3 8 -6 17 -8 20 -4 11 11 67 11 60 0
-4 -6 0 -8 10 -4 11 4 17 1 17 -9 0 -26 35 -11 37 16 1 14 0 19 -3 13 -4 -10
-11 -10 -27 2 -12 8 -29 15 -39 15 -10 0 -18 4 -18 9 0 5 11 8 24 7 13 0 22
-5 19 -10 -3 -5 6 -7 21 -4 32 6 39 -3 39 -56 -1 -36 0 -37 6 -11 3 17 10 29
14 28 17 -6 27 -2 27 12 0 8 7 15 16 15 9 0 12 5 8 11 -5 8 14 9 67 4 41 -5
92 -9 114 -9 22 -1 46 -6 53 -10 7 -4 25 -5 38 -2 19 5 24 4 18 -6 -5 -10 -4
-11 7 0 19 18 34 15 18 -5 -13 -15 -11 -15 13 1 15 10 37 16 50 13 20 -4 20
-4 -4 -6 -16 0 -28 -6 -28 -11 0 -6 6 -9 13 -8 6 2 11 -3 9 -9 -1 -7 2 -13 8
-13 5 0 10 7 10 16 0 10 6 14 15 10 8 -3 14 0 12 7 -1 7 3 11 9 10 6 -1 74 -5
152 -9 78 -4 140 -10 138 -13 -2 -3 66 -7 152 -8 105 -2 158 -6 163 -14 4 -6
12 -8 18 -4 7 4 84 4 172 0 137 -7 159 -10 154 -23 -4 -11 -2 -12 7 -5 14 11
132 16 160 7 10 -3 16 -10 13 -15 -4 -5 -1 -9 6 -9 8 0 8 -4 -1 -15 -7 -8 -19
-15 -28 -15 -8 0 -13 -3 -9 -6 3 -4 18 -3 32 0 20 5 25 12 23 29 -3 21 0 22
75 22 42 0 77 3 77 6 0 3 -53 9 -117 13 -65 4 -516 31 -1003 61 -487 30 -932
57 -990 61 -255 14 -295 27 -333 113 -19 42 -21 70 -25 314 l-4 267 83 0 c46
0 190 -4 319 -10 286 -12 598 -24 1300 -50 294 -11 632 -24 750 -30 118 -5
328 -14 465 -20 439 -18 1260 -54 1605 -70 118 -5 316 -14 440 -20 124 -5 270
-12 325 -15 55 -3 334 -17 620 -30 286 -14 669 -32 850 -40 182 -9 345 -18
364 -21 l33 -5 -6 -157 c-14 -309 -26 -458 -41 -509 -16 -54 -63 -105 -113
-124 -28 -11 -174 -13 -279 -4 -104 8 -726 51 -1238 85 -253 16 -485 32 -515
35 -30 3 -197 14 -370 25 -173 11 -488 32 -700 46 -525 34 -847 54 -894 54
-67 0 -36 -7 59 -14 50 -4 92 -11 93 -16 5 -14 32 -12 32 2 0 6 2 9 5 6 12
-12 -9 -39 -26 -35 -10 3 -20 -2 -23 -10 -9 -23 -7 -30 4 -13 9 13 15 10 36
-15 17 -19 24 -23 20 -11 -5 13 -2 17 9 13 8 -4 18 1 23 10 8 14 10 14 15 -1
10 -27 30 -19 23 9 -5 18 -2 25 8 25 8 0 17 6 19 13 4 7 6 6 6 -5 1 -9 -5 -19
-11 -21 -8 -3 -5 -6 5 -6 10 -1 15 -6 12 -11 -4 -6 -11 -8 -16 -5 -5 4 -9 0
-9 -9 0 -8 -4 -16 -9 -18 -9 -3 -15 -23 -28 -90 -7 -38 -26 -52 -52 -38 -18 9
-21 8 -21 -8 0 -10 -5 -23 -11 -29 -7 -7 -6 -12 6 -17 9 -3 13 -2 10 4 -3 5
-1 18 4 27 10 17 10 17 11 0 0 -16 2 -16 25 -1 46 30 77 -8 35 -43 -12 -10
-20 -30 -20 -47 0 -16 -3 -26 -7 -23 -3 4 -12 2 -20 -4 -9 -8 -13 -8 -13 -1 0
6 8 16 18 22 16 11 16 11 0 6 -25 -8 -22 9 4 26 17 11 19 16 8 23 -9 5 -11 4
-6 -3 4 -7 2 -12 -3 -12 -6 0 -11 6 -11 13 0 9 -2 9 -9 -1 -4 -8 -11 -13 -15
-12 -4 1 -12 -1 -19 -4 -6 -3 -3 -4 8 -3 21 2 28 -27 12 -49 -4 -7 -1 -14 8
-17 8 -4 12 -13 9 -22 -3 -8 -10 -12 -15 -9 -5 3 -9 1 -9 -4 0 -5 -10 -14 -22
-20 -13 -6 -18 -11 -13 -11 22 -2 75 40 104 83 34 48 75 185 64 212 -5 13 -2
15 18 8 13 -4 52 -7 87 -7 34 0 62 -4 62 -9 0 -5 7 -2 16 6 18 18 39 22 28 4
-5 -7 -3 -8 5 -3 23 14 111 33 111 24 0 -5 7 -9 15 -9 10 0 12 6 8 17 -7 17
-6 17 20 0 22 -14 28 -15 39 -4 13 14 58 11 58 -4 0 -5 5 -9 11 -9 5 0 7 5 4
10 -3 6 4 10 16 10 16 0 19 -3 11 -13 -8 -10 -4 -12 21 -12 18 1 38 4 45 9 7
4 12 1 12 -8 0 -9 5 -16 11 -16 5 0 8 4 5 8 -5 9 41 8 51 -1 3 -4 12 -2 20 4
10 9 13 8 13 -4 0 -12 7 -13 35 -7 27 6 35 5 35 -6 0 -8 5 -14 10 -14 6 0 10
4 10 9 0 5 11 8 25 7 14 0 25 -4 25 -8 0 -5 5 -8 11 -8 5 0 7 5 3 12 -5 8 -2
9 12 4 23 -10 65 -16 119 -19 22 -2 45 -5 50 -8 6 -3 43 -5 82 -4 58 0 73 -3
73 -15 0 -13 2 -13 9 -1 9 14 51 24 51 12 0 -3 42 -7 92 -7 52 -1 94 -6 96
-12 1 -5 12 -8 22 -5 12 3 20 0 20 -6 0 -7 4 -9 10 -6 6 3 10 0 11 -7 0 -7 4
-4 8 7 13 33 34 -118 29 -212 -3 -62 -10 -91 -24 -111 -11 -15 -118 -93 -239
-174 -345 -229 -359 -237 -461 -255 -93 -16 -243 -13 -374 6 -100 15 -392 41
-441 40 -24 -1 62 -12 191 -25 260 -26 282 -28 325 -42 62 -21 71 -21 -1065
88 -649 62 -670 65 -689 106 -20 44 -29 40 669 234 179 50 333 93 343 96 35
11 16 19 -45 20 -35 0 -153 4 -263 8 -230 9 -219 11 -555 -84 -118 -34 -224
-62 -235 -64 -12 -1 -25 -5 -31 -9 -6 -3 -69 -22 -140 -42 -118 -33 -391 -111
-654 -186 -58 -17 -108 -31 -113 -32 -4 -1 82 -2 190 -3 165 0 270 -8 623 -47
234 -25 495 -53 580 -61 85 -9 382 -38 660 -66 278 -28 699 -68 935 -90 463
-43 627 -66 745 -105 170 -56 310 -169 456 -365 72 -97 267 -375 549 -785 87
-126 171 -247 187 -267 17 -21 25 -38 19 -38 -5 0 -13 5 -16 10 -4 6 -10 8
-15 5 -8 -5 -69 73 -174 223 -31 45 -60 82 -62 82 -3 0 20 -36 50 -79 57 -80
66 -98 44 -85 -8 4 -10 3 -5 -2 5 -5 14 -9 20 -9 5 0 12 -5 14 -12 3 -9 -24
-11 -34 -3 -2 2 -7 3 -12 4 -6 0 -16 8 -23 16 -11 12 -11 12 5 1 23 -18 21 -2
-3 29 -22 28 -26 45 -8 34 7 -4 8 -3 4 5 -4 6 -11 9 -16 6 -5 -3 -98 123 -206
279 -187 270 -199 285 -233 291 -41 6 -255 31 -646 74 -149 17 -387 44 -530
60 -143 17 -321 37 -395 46 -74 8 -232 26 -350 40 -118 14 -276 32 -350 40
-297 34 -860 106 -911 116 -30 6 -120 13 -201 15 -146 4 -198 13 -198 35 0 8
-4 8 -15 -1 -9 -8 -15 -8 -15 -2 0 6 4 12 9 14 6 2 41 46 78 99 219 311 217
308 243 310 27 1 -286 39 -524 64 -441 45 -502 11 -811 -445 -247 -365 -286
-420 -296 -415 -5 4 -5 11 1 18 12 15 155 228 231 346 103 160 220 316 287
384 114 117 227 153 442 144 77 -4 90 -3 50 3 -164 24 -337 0 -432 -61 -92
-59 -185 -179 -498 -646 -85 -127 -158 -229 -162 -227 -5 3 -8 0 -8 -7 0 -7
-3 -10 -6 -6 -8 7 290 457 360 545 27 34 51 69 52 77 4 25 122 171 185 229
153 138 255 149 799 86 349 -41 541 -61 1183 -125 304 -30 595 -59 647 -65 52
-5 165 -17 250 -25 583 -55 708 -68 815 -85 66 -11 147 -28 179 -40 33 -11 61
-18 64 -16 7 8 -152 54 -239 70 -70 13 -788 88 -1449 152 -502 48 -1386 137
-1533 154 -368 43 -522 38 -641 -22 -116 -58 -183 -141 -507 -622 l-195 -291
-55 -2 c-30 -2 -85 -8 -124 -13 -38 -6 -187 -14 -330 -17 -218 -5 -267 -9
-307 -24 -25 -10 -187 -61 -360 -114 -172 -53 -421 -132 -553 -175 -132 -44
-280 -91 -330 -105 -49 -14 -100 -35 -112 -47 -48 -45 -39 -130 20 -185 30
-29 43 -33 252 -67 121 -21 274 -48 340 -60 350 -69 368 -69 505 -18 94 35
921 328 1015 360 33 11 61 19 63 18 4 -5 -292 -168 -435 -240 -102 -50 -133
-71 -133 -85 0 -25 -12 -21 290 -75 140 -25 291 -52 335 -61 118 -21 1065
-177 1400 -230 160 -25 346 -54 415 -65 449 -72 1053 -160 1093 -160 37 0 73
12 154 50 58 28 108 48 110 46 3 -2 -47 -29 -111 -60 -122 -60 -147 -64 -247
-46 -30 5 -223 35 -429 65 -940 140 -2712 428 -2950 481 -17 4 -22 2 -15 -5
17 -16 1095 -203 2315 -401 239 -38 498 -81 575 -95 77 -13 230 -40 341 -60
110 -19 218 -35 240 -35 30 0 75 20 194 84 286 154 535 296 535 305 0 5 4 13
9 18 5 5 6 3 2 -4 -4 -7 -5 -13 -1 -13 3 0 78 42 166 92 122 71 161 99 167
118 12 42 8 203 -6 236 -13 31 -16 32 -105 42 -51 6 -173 22 -272 36 -494 68
-2622 346 -2634 344 -7 -2 176 -30 408 -62 232 -33 416 -63 410 -66 -6 -4 11
-11 37 -15 38 -6 44 -9 29 -15 -11 -4 -24 -4 -30 0 -5 4 -48 10 -95 13 -59 4
-73 3 -45 -3 22 -5 58 -9 80 -10 60 -1 71 -12 36 -38 -17 -12 -37 -19 -45 -16
-9 3 -16 1 -16 -5 0 -20 41 -12 76 15 33 25 37 26 120 19 60 -5 87 -11 91 -21
6 -17 -26 -46 -44 -39 -7 2 -15 0 -18 -4 -2 -5 9 -11 25 -13 17 -3 30 0 30 6
0 6 12 19 26 30 22 16 37 17 111 11 58 -5 86 -11 90 -21 8 -20 -17 -46 -39
-41 -10 3 -21 1 -24 -4 -5 -8 1 -11 35 -13 8 -1 27 12 43 28 29 28 29 28 116
21 48 -4 90 -9 95 -12 25 -15 -19 -61 -53 -54 -8 2 -12 0 -8 -4 16 -17 53 -8
80 19 28 28 30 28 106 22 42 -4 85 -10 95 -12 23 -7 22 -31 -3 -46 -26 -16
-26 -28 1 -28 11 0 18 4 14 9 -3 5 8 19 25 31 27 19 38 21 110 14 44 -3 88
-13 97 -20 17 -13 16 -15 -7 -34 -14 -11 -31 -18 -38 -15 -7 3 -10 0 -7 -5 9
-15 52 -12 58 4 3 8 17 22 31 31 23 15 36 16 113 5 49 -6 92 -15 96 -19 14
-14 -34 -52 -56 -45 -12 4 -17 2 -13 -4 9 -15 66 -21 66 -7 0 6 11 22 24 34
24 22 26 22 120 11 53 -7 99 -17 103 -23 3 -6 -6 -21 -21 -34 -17 -14 -22 -23
-13 -23 8 0 29 14 47 30 31 29 36 30 94 26 l61 -5 -65 12 c-56 10 -67 10 -78
-3 -10 -12 -10 -10 -1 12 13 31 11 31 174 11 66 -8 135 -15 153 -16 38 -1 50
12 -128 -134 -465 -379 -610 -491 -644 -497 -33 -6 -619 80 -1926 284 -278 44
-678 106 -890 139 -447 70 -455 71 -455 90 0 11 406 252 833 494 l92 52 -42 7
c-24 4 -51 5 -60 2 -10 -3 -118 -65 -240 -138 -304 -180 -346 -203 -328 -182
30 38 13 67 -50 83 -33 9 -35 11 -38 59 -2 27 -7 52 -11 57 -6 6 -285 57 -315
57 -23 0 11 14 175 71 l174 61 480 -6 c264 -3 563 -8 665 -11 102 -3 255 -7
340 -9 296 -8 485 -17 513 -26 20 -7 26 -6 21 2 -5 8 1 9 17 5 13 -4 44 -7 69
-7 35 0 42 -3 30 -11 -11 -8 8 -9 68 -5 71 5 83 3 78 -9 -4 -13 10 -15 92 -15
53 0 113 -4 132 -10 31 -8 147 -21 191 -21 12 0 15 -6 12 -20 -6 -21 7 -25 24
-8 13 13 36 3 28 -12 -3 -5 0 -6 8 -3 8 3 38 1 67 -4 28 -5 66 -6 84 -2 33 7
76 -3 87 -21 4 -7 13 -7 27 2 16 10 26 10 44 2 13 -7 48 -15 78 -19 30 -3 61
-11 68 -17 7 -5 15 -7 19 -4 3 4 12 2 19 -4 9 -7 19 -6 34 3 16 10 22 10 28 1
4 -7 24 -12 44 -11 21 1 43 -4 51 -10 7 -7 34 -11 58 -10 24 1 54 -2 66 -6 14
-4 23 -3 23 3 0 5 14 3 30 -6 17 -8 49 -16 73 -18 23 -2 62 -8 87 -14 25 -6
65 -11 90 -11 25 0 40 -4 33 -8 -6 -4 23 -8 65 -9 42 -2 79 -8 83 -14 3 -6 37
-12 75 -14 38 -1 77 -3 86 -4 9 0 24 -8 32 -17 9 -8 16 -11 16 -5 0 6 9 11 20
11 12 0 17 -5 14 -14 -7 -18 92 -32 112 -15 8 6 18 9 21 5 4 -4 1 -11 -7 -16
-13 -8 -12 -10 3 -10 9 0 17 -4 17 -8 0 -5 25 -7 55 -4 49 4 55 2 55 -14 0
-14 2 -16 9 -6 6 11 17 11 48 3 23 -6 48 -8 57 -5 9 4 16 1 16 -6 0 -6 6 -10
12 -8 7 3 19 -2 27 -9 11 -12 15 -11 27 4 13 17 13 17 14 -3 0 -16 7 -21 33
-21 32 -1 79 -10 107 -20 8 -3 23 -5 33 -4 10 1 17 -4 17 -14 0 -11 6 -15 19
-10 10 3 24 -1 31 -10 7 -8 27 -15 45 -15 21 0 35 -6 39 -16 3 -9 12 -14 20
-11 7 3 18 1 22 -3 5 -5 24 -10 41 -12 18 -1 35 -8 37 -15 3 -6 24 -17 48 -23
24 -6 52 -15 63 -20 55 -24 315 -65 315 -50 0 13 -32 50 -40 45 -4 -3 -14 3
-21 13 -13 15 -12 16 4 3 9 -7 17 -9 17 -3 0 6 6 9 13 8 19 -3 37 -16 37 -28
0 -6 -6 -5 -16 3 -10 8 -8 0 6 -24 12 -20 27 -37 33 -37 5 0 2 9 -8 20 -10 11
-16 23 -13 26 3 3 15 -10 27 -29 22 -36 57 -57 95 -57 15 0 121 73 291 200
147 110 270 200 273 200 4 0 6 -106 4 -235 l-3 -236 33 -13 c76 -32 477 -88
643 -90 98 -1 115 2 160 24 28 13 73 47 101 75 l51 50 7 130 c3 72 9 264 13
428 3 164 9 300 13 302 9 5 249 -21 256 -27 2 -3 -5 -198 -17 -434 -13 -236
-23 -472 -23 -524 -1 -92 0 -95 24 -106 25 -12 267 -49 510 -79 69 -9 147 -19
174 -24 81 -14 175 -3 228 26 73 40 136 109 153 167 10 34 23 185 37 453 l22
403 38 0 38 0 0 304 c-1 227 -4 306 -13 310 -9 3 -9 5 1 5 8 1 12 17 12 45 0
41 -2 45 -27 49 l-28 4 28 2 c30 1 36 17 9 25 -9 3 -50 7 -90 8 -40 2 -68 4
-62 6 6 2 7 8 4 14 -4 6 1 8 12 5 11 -3 49 -8 86 -12 l66 -6 0 185 c-1 121 -5
183 -11 179 -6 -4 -7 -1 -1 8 5 8 10 61 10 119 1 101 1 103 -13 67 -14 -34
-33 -50 -33 -27 0 6 5 10 10 10 6 0 10 4 10 9 0 5 5 22 12 38 14 35 17 103 4
103 -6 0 -5 5 2 12 15 15 16 32 2 23 -5 -3 -10 -2 -10 4 0 5 4 13 10 16 5 3 9
34 7 69 -2 56 -4 63 -22 62 -11 -1 -24 -5 -28 -11 -6 -7 -10 -6 -13 2 -3 7
-13 9 -22 6 -10 -4 -13 -2 -9 3 5 5 21 9 37 10 38 2 60 11 60 23 0 6 -14 8
-32 6 l-33 -5 33 12 c20 7 32 18 32 29 0 13 -5 17 -17 13 -17 -5 -17 -5 -1 8
15 12 17 34 15 164 -2 143 -3 149 -22 146 -16 -2 -17 -1 -5 7 8 5 18 7 22 5 4
-3 8 13 8 36 0 27 -5 43 -15 46 -8 4 -15 10 -15 15 0 5 7 9 15 9 8 0 15 5 15
11 0 5 -4 7 -10 4 -5 -3 -10 -2 -10 4 0 5 6 11 13 14 16 5 -9 37 -29 37 -8 0
-14 4 -14 10 0 11 32 1 42 -14 4 -6 8 4 8 22 0 17 -4 32 -8 32 -5 0 -9 7 -9
15 0 8 4 12 9 9 4 -3 8 13 8 35 0 26 -5 41 -12 41 -9 0 -9 3 -3 8 6 4 12 22
13 40 2 30 0 33 -19 27 -15 -5 -19 -4 -15 4 4 6 14 11 22 11 9 0 14 11 14 36
0 25 -3 33 -12 28 -10 -6 -10 -4 -2 7 17 21 18 133 2 123 -10 -6 -11 -4 0 7 6
7 12 38 12 70 0 54 -1 57 -22 52 -23 -4 -22 -4 1 10 23 14 23 15 5 26 -13 8
-14 11 -3 8 14 -5 16 12 16 149 0 135 -2 154 -16 154 -14 1 -14 2 2 14 20 15
23 42 5 49 -10 4 -10 6 0 6 9 1 12 26 12 91 0 65 -3 90 -12 90 -10 0 -10 2 -1
8 7 4 11 37 12 81 0 59 -3 77 -17 88 -16 14 -16 14 1 9 12 -4 17 0 17 14 0 11
-6 20 -12 20 -9 0 -10 3 -2 8 12 8 16 145 4 137 -17 -10 -20 40 -3 52 22 17
14 23 -14 12 -15 -5 -21 -14 -17 -24 3 -8 1 -15 -6 -15 -6 0 -9 4 -6 9 4 5 1
11 -6 13 -6 2 6 14 27 27 28 16 35 25 26 31 -9 5 -10 10 -2 14 6 4 11 11 11
17 0 14 -27 11 -43 -6 -13 -13 -16 -13 -21 0 -7 20 25 75 45 75 9 0 16 7 16
15 0 8 -4 15 -9 15 -4 0 -8 -5 -8 -12 0 -6 -3 -9 -6 -5 -8 8 6 48 15 43 4 -3
8 15 8 39 1 28 -4 46 -13 49 -8 3 -15 0 -16 -7 0 -7 -2 -16 -2 -22 -2 -15 -16
-35 -24 -35 -11 0 -12 39 -2 45 5 3 7 12 3 21 -3 8 2 21 12 28 22 16 28 47 12
59 -8 5 -5 7 8 5 17 -2 21 3 23 34 3 30 0 37 -11 32 -8 -3 -18 -1 -21 5 -4 5
3 12 14 16 21 7 28 25 9 25 -8 0 -8 4 -1 13 6 6 10 34 10 61 0 36 -2 46 -10
35 -7 -10 -8 -9 -2 6 4 11 9 52 11 90 4 66 4 69 -12 50 -9 -11 -14 -15 -11 -8
4 6 0 13 -6 16 -8 3 -3 9 12 16 23 9 21 10 -17 8 -23 -2 -49 -9 -57 -17 -14
-11 -16 -10 -10 4 3 9 2 16 -4 16 -6 0 -12 -6 -15 -12 -4 -10 -7 -10 -18 0
-15 14 -99 17 -99 3 0 -5 -9 -11 -21 -14 -15 -4 -19 -2 -15 9 3 8 1 14 -4 14
-6 0 -10 -5 -10 -11 0 -14 -30 -38 -48 -39 -7 0 -1 11 14 25 l27 25 -57 0
c-31 0 -56 -4 -56 -10 0 -5 -5 -10 -11 -10 -5 0 -7 5 -4 10 3 6 1 10 -4 10
-10 0 -16 -21 -12 -42 2 -12 -8 -10 -23 4 -11 11 -11 15 2 24 13 9 1 12 -56
11 -40 0 -72 -3 -72 -7 0 -4 -11 -12 -25 -18 -20 -9 -25 -9 -25 2 0 8 6 17 13
20 6 3 -5 4 -25 3 -20 0 -35 -4 -32 -8 2 -4 -3 -12 -11 -19 -8 -7 -15 -17 -15
-23 0 -6 12 0 26 14 l25 24 -14 -29 c-9 -15 -27 -34 -42 -42 -32 -16 -38 -17
-31 -5 4 5 -5 4 -19 -2 -15 -7 -23 -18 -20 -26 7 -18 -23 -64 -35 -56 -6 4
-10 14 -10 23 0 15 2 15 10 2 10 -16 11 -13 13 38 1 15 -4 27 -11 27 -7 0 -12
-3 -12 -8 2 -23 -39 -68 -72 -82 -35 -14 -41 -14 -62 1 -17 11 -26 12 -31 4
-4 -6 -17 -15 -29 -20 l-21 -9 23 0 c12 -1 22 3 22 8 0 5 9 7 20 4 28 -7 25
-23 -5 -24 -14 -1 -31 -2 -37 -3 -7 -1 -19 -9 -26 -18 -7 -10 -19 -18 -26 -18
-6 0 -12 -12 -11 -27 0 -19 6 -27 23 -29 13 -3 22 1 22 10 0 17 49 70 57 62 4
-3 22 6 40 20 36 27 61 25 27 -2 -18 -14 -18 -15 6 -8 l25 6 -24 -26 c-14 -14
-19 -26 -13 -26 7 0 12 4 12 9 0 5 12 16 26 26 15 9 23 12 19 5 -4 -7 -1 -16
6 -22 11 -7 9 -8 -6 -7 -21 3 -85 -30 -85 -43 0 -12 15 -9 28 4 9 9 12 8 12
-5 0 -9 3 -17 6 -17 11 0 49 23 56 34 5 6 8 1 8 -11 0 -16 -6 -23 -19 -23 -11
0 -22 -4 -26 -10 -3 -6 -15 -6 -30 0 -16 6 -27 6 -31 -2 -5 -7 -3 -8 6 -3 8 5
11 3 8 -6 -3 -8 -9 -14 -14 -15 -5 0 -20 -6 -34 -12 -23 -11 -23 -12 10 -7 30
5 33 4 19 -7 -9 -7 -14 -18 -12 -24 2 -7 -10 -27 -26 -45 -17 -18 -28 -35 -25
-38 3 -3 10 2 15 12 6 9 17 17 24 17 8 0 15 7 15 16 0 8 4 13 9 9 5 -3 12 -1
16 5 3 5 1 10 -5 10 -6 0 -9 4 -5 10 3 5 11 7 18 4 7 -2 17 4 24 15 10 16 9
20 -3 25 -8 3 -12 2 -9 -3 3 -5 0 -13 -6 -17 -8 -4 -9 -3 -5 4 4 7 2 12 -6 12
-8 0 -6 6 5 18 13 12 20 14 25 5 8 -13 37 -12 49 2 4 4 2 5 -4 1 -7 -4 -13 -2
-13 3 0 13 10 14 29 2 10 -6 10 -10 1 -16 -6 -4 -9 -13 -6 -21 4 -11 2 -12
-14 -4 -14 7 -21 7 -27 -2 -11 -19 -14 -50 -4 -43 5 3 12 1 16 -5 3 -5 -1 -10
-9 -10 -8 0 -22 -8 -32 -17 -10 -10 -29 -19 -42 -20 -14 -1 -28 -6 -31 -11 -3
-5 -13 -12 -21 -15 -10 -4 -8 -6 7 -6 12 -1 25 4 28 9 3 6 11 10 16 10 6 0 8
-4 5 -8 -2 -4 3 -8 13 -9 10 -1 22 11 30 28 13 29 35 42 25 14 -4 -8 -10 -15
-15 -15 -5 0 -9 -5 -9 -11 0 -5 6 -7 13 -4 6 4 4 0 -5 -8 -10 -8 -18 -17 -18
-20 0 -3 8 -8 18 -10 11 -3 8 -5 -8 -5 -14 0 -40 -3 -58 -6 -28 -4 -33 -2 -28
10 4 11 -2 10 -23 -5 -20 -15 -31 -17 -33 -9 -3 9 -6 9 -12 0 -4 -7 -2 -12 4
-12 6 0 8 -4 5 -10 -3 -5 -2 -10 4 -10 5 0 12 4 16 10 3 5 12 7 20 3 9 -3 22
0 30 7 30 25 29 -2 0 -28 -17 -15 -25 -23 -18 -18 8 5 16 6 20 3 3 -4 14 -2
24 3 15 8 18 6 21 -18 l3 -27 14 24 c9 16 9 21 1 16 -8 -5 -11 0 -8 16 2 17 8
23 22 21 10 -2 27 6 37 17 11 11 25 19 32 17 6 -1 9 -1 6 1 -11 6 2 41 17 47
9 3 14 -2 14 -14 0 -11 -5 -20 -10 -20 -6 0 -9 -6 -8 -12 2 -7 -7 -14 -19 -16
-13 -2 -23 -10 -23 -17 0 -8 -7 -18 -16 -23 -11 -6 -15 -17 -12 -30 6 -21 -12
-44 -42 -55 -12 -4 -11 -6 3 -6 9 -1 17 -6 17 -12 0 -5 5 -7 12 -3 7 4 8 3 4
-5 -6 -9 -11 -9 -22 0 -11 9 -18 9 -26 1 -9 -9 -9 -12 2 -12 9 0 8 -5 -5 -20
-10 -11 -24 -20 -32 -20 -7 0 -13 -4 -13 -10 0 -5 -5 -10 -11 -10 -5 0 -7 5
-3 12 5 8 0 9 -17 5 -13 -4 -29 -7 -35 -7 -7 0 -14 -12 -17 -27 -4 -23 -3 -25
6 -12 7 9 22 19 35 23 18 6 24 2 32 -19 5 -14 14 -23 20 -20 5 3 10 8 10 11 0
3 -4 2 -10 -1 -5 -3 -10 1 -10 9 0 10 6 13 17 9 9 -4 14 -2 10 3 -3 6 3 15 14
22 16 10 18 10 16 -7 -2 -10 -9 -27 -17 -37 -8 -10 -10 -15 -3 -11 17 10 45
-3 39 -19 -3 -8 -1 -14 3 -14 5 0 11 7 15 15 3 8 1 15 -5 15 -6 0 -7 5 -4 10
3 6 2 10 -3 10 -5 0 -8 10 -6 23 1 12 3 25 3 30 1 4 6 7 12 7 8 0 7 -6 -2 -17
-12 -15 -12 -16 4 -10 10 4 17 2 17 -5 0 -6 9 -3 20 7 11 10 20 13 20 7 0 -6
-5 -12 -12 -14 -9 -3 -9 -6 0 -12 8 -4 16 1 21 16 9 22 10 22 10 2 1 -23 -22
-39 -51 -35 -10 1 -18 -3 -18 -8 0 -6 6 -11 13 -11 9 0 8 -3 -2 -9 -8 -6 -9
-11 -3 -15 6 -4 19 2 29 13 10 10 33 21 52 23 31 4 32 4 16 -9 -11 -7 -27 -13
-37 -13 -10 0 -18 -4 -18 -10 0 -14 11 -13 55 6 20 8 42 13 47 12 6 -2 -8 -10
-31 -18 -22 -7 -41 -17 -41 -22 0 -5 -5 -6 -10 -3 -6 4 -17 1 -25 -5 -8 -7
-15 -9 -15 -4 0 5 -8 0 -17 -11 -11 -15 -14 -16 -10 -3 4 11 -3 20 -24 28 -16
7 -29 15 -29 19 0 11 -84 5 -88 -7 -2 -7 -10 -12 -17 -12 -7 0 -12 -8 -11 -17
0 -10 -5 -17 -11 -15 -7 1 -13 -2 -13 -8 0 -5 9 -10 19 -10 11 0 21 -5 23 -12
3 -9 6 -9 12 0 4 7 2 12 -5 12 -8 0 -7 6 4 18 8 9 16 22 16 27 0 14 31 19 31
5 0 -6 -4 -9 -9 -5 -6 3 -13 -10 -17 -29 -6 -34 -34 -72 -34 -47 0 6 -9 11
-20 11 -11 0 -20 -5 -20 -11 0 -8 -4 -8 -13 -1 -9 8 -22 2 -47 -20 -19 -16
-27 -27 -17 -24 10 3 25 6 33 6 9 0 12 5 9 10 -3 6 -3 10 2 11 4 0 18 2 31 3
27 3 29 -10 2 -19 -11 -4 -18 -11 -15 -16 4 -5 16 0 28 11 11 11 26 19 32 17
5 -2 20 11 33 30 12 18 30 33 40 33 15 -1 15 -2 -2 -15 -25 -19 -16 -19 20 0
21 11 24 15 11 15 -10 0 -15 5 -12 10 3 6 15 10 25 10 17 0 18 -3 8 -25 -6
-14 -13 -23 -16 -20 -3 2 -14 -2 -26 -10 -11 -8 -28 -15 -38 -15 -10 0 -18 -4
-18 -10 0 -5 9 -10 19 -10 14 0 18 -7 17 -25 -1 -18 -6 -23 -21 -20 -11 2 -23
4 -27 4 -5 1 -8 6 -8 12 0 6 7 9 15 5 8 -3 15 -2 15 3 0 10 -37 21 -44 13 -12
-12 -5 -31 14 -37 11 -4 18 -11 14 -16 -6 -10 32 -4 71 12 18 7 18 8 2 8 -13
1 -17 7 -15 24 2 16 10 22 31 23 24 1 30 -9 6 -12 -5 -1 -13 -2 -19 -3 -20 -2
-9 -21 13 -21 20 -1 19 -3 -13 -29 -19 -16 -38 -27 -42 -25 -5 3 -8 0 -8 -7 0
-7 -11 -9 -35 -5 -22 4 -35 3 -35 -4 0 -5 6 -10 13 -11 42 -2 77 -19 40 -19
-12 0 -24 -7 -27 -16 -3 -9 -11 -12 -18 -8 -10 5 -9 3 0 -7 11 -12 15 -11 23
3 5 9 16 15 23 12 8 -3 20 4 26 17 9 15 14 18 20 9 5 -9 9 -9 14 -1 4 6 16 11
27 11 11 0 17 4 14 10 -3 5 6 20 20 33 24 20 25 24 12 35 -12 11 -15 10 -13
-4 0 -9 -6 -19 -14 -22 -12 -4 -13 -3 -3 10 7 8 11 17 9 19 -3 2 9 20 26 39
19 22 27 28 23 15 -4 -11 -8 -34 -9 -52 -3 -30 -1 -32 28 -27 30 5 30 4 -8
-16 -22 -11 -49 -29 -61 -40 -12 -11 -24 -20 -28 -20 -11 0 -49 -41 -43 -47 2
-3 0 -11 -7 -18 -9 -9 -14 -9 -24 1 -17 17 -16 25 2 18 8 -4 15 -1 15 5 0 17
-31 13 -45 -6 -13 -17 -55 -29 -55 -15 0 4 -9 8 -20 8 -11 0 -20 -4 -20 -8 0
-4 10 -8 21 -8 17 0 19 -3 10 -14 -7 -8 -20 -12 -30 -9 -10 3 -22 0 -25 -6 -4
-7 -1 -9 8 -5 8 3 23 -3 34 -14 16 -16 22 -17 37 -5 11 7 31 13 47 13 15 0 28
4 28 9 0 16 40 -1 51 -21 9 -16 8 -19 -2 -13 -9 6 -11 3 -6 -8 4 -10 -1 -18
-13 -22 -11 -3 -19 -9 -19 -13 3 -19 -2 -32 -12 -32 -8 0 -8 5 1 15 9 11 9 15
1 15 -7 0 -9 5 -6 10 10 16 -1 11 -16 -7 -9 -11 -10 -14 -2 -9 9 5 11 2 7 -9
-5 -12 -10 -13 -20 -4 -17 14 -71 2 -71 -15 0 -8 6 -12 14 -9 7 3 13 9 13 14
0 5 8 9 18 9 14 0 14 -2 3 -9 -17 -11 -7 -41 14 -41 8 0 15 -5 15 -11 0 -6 -6
-9 -12 -7 -13 5 -38 -34 -38 -56 0 -12 6 -14 55 -17 13 -1 22 -5 19 -10 -8
-13 9 -10 29 5 10 8 15 20 11 29 -3 8 -1 18 5 21 7 5 9 -5 7 -26 -2 -18 -9
-34 -15 -36 -6 -2 -17 -9 -24 -16 -6 -7 -20 -15 -29 -19 -30 -11 -20 -26 15
-22 l32 3 -30 -13 c-19 -8 -32 -9 -36 -3 -12 19 -149 -6 -149 -28 0 -8 6 -11
15 -8 11 5 13 2 9 -10 -7 -19 7 -21 24 -4 9 9 7 15 -6 25 -9 8 -11 12 -5 8 7
-3 22 -1 34 5 19 11 20 10 14 -12 -4 -12 -12 -24 -16 -26 -5 -2 -9 -8 -9 -14
0 -6 7 -5 16 3 9 8 30 14 46 15 26 2 27 0 11 -11 -31 -23 -6 -28 34 -8 47 24
84 18 72 -12 -4 -11 -8 -15 -8 -9 -1 13 -31 28 -31 15 0 -4 11 -20 24 -34 14
-15 20 -29 15 -33 -6 -3 -5 -12 3 -22 11 -15 11 -15 -3 -5 -11 9 -19 9 -26 2
-7 -7 -13 -8 -17 0 -4 5 -14 7 -23 4 -10 -4 -14 -2 -11 7 2 7 12 14 21 16 9 1
15 -2 12 -6 -3 -5 -1 -11 4 -15 6 -3 15 4 21 15 9 16 8 20 -4 20 -10 0 -13 6
-10 15 5 11 -1 15 -22 16 -16 1 -33 0 -39 -1 -5 -2 -19 -3 -30 -4 -11 0 -28
-7 -37 -15 -9 -8 -24 -16 -33 -17 -9 -1 -25 -10 -36 -20 -13 -11 -28 -15 -49
-11 -16 4 -30 3 -30 -2 0 -5 -10 -11 -21 -14 -21 -6 -21 -5 2 19 12 13 18 24
12 24 -6 0 -14 -7 -17 -16 -3 -8 -10 -12 -16 -9 -5 3 -10 2 -10 -4 0 -5 -8
-12 -17 -14 -14 -4 -12 -5 5 -6 12 0 22 -6 22 -12 0 -7 -10 -9 -25 -5 -27 7
-35 -8 -9 -18 9 -4 28 4 45 18 26 22 38 25 88 17 3 -1 -4 -8 -15 -16 -17 -13
-17 -14 -2 -15 19 0 58 29 58 43 0 5 -7 4 -15 -3 -10 -8 -15 -9 -15 -2 0 13
40 37 56 34 5 -1 19 6 30 15 22 21 104 31 104 13 0 -6 -6 -10 -12 -9 -31 4
-58 -2 -58 -12 0 -6 7 -9 15 -5 22 8 18 -1 -15 -32 -34 -33 -37 -42 -15 -42 8
0 15 -4 15 -8 0 -17 -12 -21 -36 -12 -15 6 -24 6 -24 0 0 -6 -7 -10 -15 -10
-8 0 -15 -8 -15 -17 0 -14 2 -15 9 -4 6 9 11 10 15 2 4 -6 -2 -15 -15 -19 -14
-5 -18 -11 -11 -16 6 -3 13 -2 17 4 4 6 11 8 16 5 5 -4 9 5 9 19 0 28 4 29 35
16 19 -8 19 -9 -3 -9 -13 -1 -21 -5 -18 -10 3 -5 -1 -23 -10 -40 -17 -35 -25
-40 -17 -12 4 16 0 18 -27 15 -28 -3 -32 -1 -27 16 5 19 4 19 -30 0 -23 -12
-46 -17 -68 -13 -19 3 -35 1 -39 -6 -5 -7 10 -11 46 -12 70 -2 110 -11 116
-27 2 -7 -5 -16 -17 -19 -12 -3 -21 -10 -21 -15 0 -5 -4 -6 -10 -3 -5 3 -10
13 -10 21 0 8 5 12 10 9 6 -3 10 -1 10 4 0 13 -2 13 -36 1 -18 -7 -30 -7 -39
0 -6 5 -15 7 -19 3 -4 -4 4 -13 16 -20 l23 -12 -27 -1 c-16 0 -28 5 -28 10 0
6 -7 10 -15 10 -18 0 -20 17 -2 23 6 2 1 2 -13 -1 -14 -3 -35 -6 -47 -6 -13
-1 -23 -5 -23 -10 0 -5 -10 -1 -22 10 -12 10 -18 13 -13 5 4 -8 2 -17 -6 -22
-7 -4 -10 -11 -6 -16 5 -4 12 -1 18 7 8 13 10 13 19 0 7 -12 10 -12 10 -1 0 7
6 11 14 8 7 -3 19 0 26 6 10 9 14 9 17 0 3 -7 11 -13 19 -13 8 0 14 -7 14 -16
0 -8 4 -13 8 -10 18 11 91 14 94 4 3 -7 11 -7 26 1 14 8 22 8 22 1 0 -5 -5
-10 -11 -10 -6 0 -9 -7 -5 -15 3 -8 -3 -20 -14 -28 -11 -8 -17 -17 -14 -20 3
-3 -4 -20 -17 -38 -21 -30 -21 -32 -3 -25 10 5 33 9 51 10 17 0 35 4 39 9 14
14 26 7 14 -8 -10 -12 -10 -15 4 -15 9 0 16 5 16 10 0 6 5 10 11 10 8 0 7 -5
-2 -16 -8 -9 -21 -13 -35 -10 -13 4 -24 1 -27 -7 -4 -9 -6 -9 -6 1 -2 26 -21
10 -40 -33 -22 -49 -77 -85 -94 -62 -6 9 -10 9 -13 0 -3 -7 -12 -9 -19 -6 -12
4 -12 7 0 19 16 16 35 18 35 4 0 -5 7 -10 16 -10 8 0 13 4 9 10 -3 5 3 18 15
30 22 22 25 19 9 -12 -9 -16 -8 -19 3 -16 7 3 14 14 16 26 2 12 7 22 11 22 4
0 7 9 8 21 2 16 -1 18 -12 9 -11 -9 -17 -7 -27 9 -7 12 -22 21 -33 22 -19 0
-19 1 3 11 12 6 22 20 22 30 0 11 -4 16 -10 13 -5 -3 -10 -2 -10 3 0 5 9 12
21 15 18 5 20 2 15 -18 -3 -13 -9 -30 -12 -39 -3 -9 -2 -16 4 -16 10 0 25 37
23 57 -1 6 9 15 21 19 l23 8 -25 6 c-14 4 -29 3 -34 -2 -16 -13 -26 -9 -19 8
5 13 3 15 -13 7 -10 -6 -26 -8 -34 -6 -10 3 -9 0 3 -7 26 -17 21 -31 -7 -19
-20 9 -27 8 -47 -12 -15 -15 -17 -20 -6 -16 9 4 23 10 31 13 11 4 13 0 9 -15
-3 -11 -9 -18 -14 -15 -5 3 -9 0 -9 -6 0 -6 -7 -18 -15 -26 -12 -13 -15 -13
-15 -2 0 8 5 19 12 26 7 7 8 12 4 12 -5 0 -22 -13 -38 -30 -15 -17 -24 -30
-18 -30 5 0 10 -4 10 -10 0 -5 -11 -10 -25 -10 -14 0 -25 5 -25 11 0 5 5 7 10
4 6 -3 10 -1 10 5 0 7 -7 9 -16 6 -9 -3 -18 -6 -20 -6 -2 0 -4 -7 -4 -15 0
-12 14 -15 63 -15 35 0 68 -5 74 -11 14 -14 36 -2 30 15 -3 7 4 18 15 25 15
10 18 10 13 0 -5 -7 0 -18 10 -26 18 -12 18 -13 -4 -13 -13 0 -35 -9 -49 -21
-15 -11 -28 -16 -30 -11 -2 6 -12 7 -24 4 -14 -3 -19 -1 -14 6 5 8 -4 12 -31
11 -21 -1 -30 -3 -20 -6 9 -2 17 -9 17 -15 0 -6 -9 -8 -21 -5 -16 4 -18 3 -9
-8 6 -8 19 -11 28 -9 14 5 13 2 -2 -10 -22 -18 -41 -21 -31 -6 3 5 0 7 -9 4
-12 -5 -13 -9 -3 -25 7 -11 13 -15 15 -9 4 12 22 14 22 3 0 -5 -14 -16 -30
-25 -28 -16 -30 -16 -31 0 0 9 -3 12 -5 6 -6 -14 -44 -6 -44 8 0 5 -5 6 -12 2
-8 -5 -9 -2 -5 9 5 14 3 15 -13 5 -17 -11 -17 -13 -2 -25 9 -7 24 -13 32 -13
13 0 13 -1 0 -10 -9 -6 -17 -5 -22 3 -6 8 -10 5 -14 -10 -5 -18 -10 -21 -25
-13 -15 9 -17 8 -12 -7 6 -16 5 -16 -10 -4 -24 19 -21 31 7 31 14 0 27 4 30 9
3 4 -8 8 -24 7 -16 -1 -32 -7 -35 -13 -2 -7 -9 -13 -14 -13 -6 0 -7 8 -4 18 6
15 5 15 -10 4 -14 -12 -15 -16 -2 -29 8 -8 19 -12 24 -9 5 3 12 -1 15 -9 4
-12 17 -14 52 -11 55 5 83 -2 62 -15 -11 -8 -11 -10 1 -18 17 -11 3 -19 -31
-17 -16 1 -28 -4 -28 -10 0 -18 61 -9 76 10 7 10 15 13 18 7 3 -5 0 -11 -6
-14 -22 -7 -1 -19 21 -12 19 6 19 8 6 21 -17 17 -19 24 -7 24 4 0 13 -9 20
-20 10 -17 10 -23 0 -34 -19 -18 -58 -27 -52 -11 3 8 -4 13 -20 13 -14 -1 -23
-4 -21 -8 3 -5 -4 -6 -14 -3 -13 3 -24 -2 -33 -16 -9 -15 -23 -21 -50 -21 -21
0 -38 5 -38 10 0 6 -12 10 -27 10 -21 0 -24 3 -13 9 8 6 18 7 23 4 19 -12 77
-21 82 -13 7 12 -8 20 -42 22 -35 2 -53 15 -46 34 3 8 0 14 -6 14 -10 0 -15
-13 -13 -31 1 -4 -8 -15 -18 -24 -11 -10 -20 -13 -20 -7 0 6 8 16 18 21 13 8
7 10 -24 5 -33 -5 -42 -3 -47 10 -4 10 -3 14 3 11 11 -7 50 16 50 29 0 4 -10
6 -22 3 -12 -3 -30 -2 -40 4 -12 6 -18 6 -18 -1 0 -5 6 -10 13 -10 8 0 8 -3
-2 -9 -8 -5 -11 -16 -8 -25 3 -8 1 -18 -5 -22 -7 -5 -9 35 -4 137 4 79 9 218
11 309 3 91 7 219 10 285 3 66 7 199 10 295 3 96 7 243 10 325 28 760 35 963
35 992 l0 33 -3622 0 -3623 0 3 -848z m4983 -1967 c7 5 10 3 7 -6 -3 -8 -14
-13 -24 -12 -17 1 -33 -12 -34 -28 0 -3 10 -4 23 -2 12 2 31 -3 42 -12 17 -14
17 -16 3 -11 -11 3 -18 0 -18 -8 0 -8 -2 -21 -5 -28 -4 -9 2 -14 16 -15 17 -2
19 1 10 10 -15 15 -14 27 4 27 8 0 15 5 15 10 0 6 7 10 15 10 8 0 13 6 11 13
-1 6 -1 9 1 6 2 -4 12 -6 21 -4 9 1 11 0 5 -2 -19 -7 -16 -23 5 -25 46 -5 98
-2 103 5 9 13 38 -4 32 -19 -3 -8 -9 -14 -14 -14 -4 0 -6 7 -2 16 5 14 3 14
-16 3 -29 -19 -26 -26 13 -31 19 -2 33 -1 30 3 -6 11 7 39 18 39 5 0 7 -4 4
-9 -9 -14 5 -41 21 -41 10 0 12 -6 8 -21 -5 -15 -4 -19 4 -15 6 4 11 18 11 32
0 15 6 24 15 24 13 0 14 -4 4 -22 -7 -13 -12 -24 -11 -25 1 -2 2 -7 2 -13 0
-16 -21 -12 -43 7 -18 17 -18 17 -6 -10 8 -19 19 -27 29 -24 10 2 24 1 32 -4
10 -5 15 -4 15 5 0 8 -6 12 -14 9 -9 -3 -11 0 -7 10 3 9 12 13 19 11 15 -6 50
40 41 54 -3 5 1 18 9 28 8 10 15 14 15 7 0 -6 -5 -15 -11 -18 -6 -5 -4 -12 8
-21 17 -13 17 -13 -2 -14 -19 -1 -19 -2 -1 -9 14 -5 16 -10 8 -15 -19 -12 -14
-21 13 -21 24 0 33 9 18 18 -5 2 -2 2 5 1 6 -2 12 4 12 12 0 8 4 12 10 9 5 -3
21 1 34 10 14 9 29 14 35 11 5 -3 11 -3 14 1 2 5 2 2 1 -4 -2 -7 1 -13 5 -13
5 0 12 6 14 13 4 9 6 9 6 0 1 -7 -8 -17 -19 -23 -16 -9 -20 -8 -20 5 0 14 -4
13 -29 -4 -16 -12 -34 -21 -40 -21 -15 0 -14 -15 3 -29 11 -9 15 -9 19 1 4 10
8 10 16 -2 17 -23 13 -29 -14 -24 -14 2 -25 0 -25 -5 0 -14 41 -21 61 -10 26
13 33 11 19 -6 -7 -8 -8 -15 -2 -15 15 0 33 26 24 36 -4 4 1 2 11 -5 9 -7 17
-19 16 -25 0 -7 -2 -6 -6 1 -3 10 -8 9 -19 -2 -10 -9 -28 -13 -50 -10 -19 2
-34 1 -34 -3 0 -4 -21 -8 -48 -9 -47 -2 -47 -2 -17 11 17 7 37 11 45 8 12 -5
13 -3 2 10 -7 8 -10 24 -6 34 5 18 5 18 -10 0 -9 -11 -16 -24 -16 -29 0 -5
-11 -7 -25 -5 -13 3 -22 2 -20 -2 9 -14 -24 -33 -37 -23 -15 11 -78 -2 -78
-16 0 -9 52 -7 68 3 19 11 23 -27 5 -47 -18 -19 -17 -20 5 -8 12 6 22 17 22
23 0 7 6 6 15 -2 9 -7 14 -19 11 -26 -3 -9 1 -11 12 -7 14 5 15 3 5 -7 -15
-16 1 -40 26 -39 10 0 8 3 -7 10 -31 12 -19 28 27 35 21 3 44 10 52 15 25 15
2 20 -45 8 -45 -11 -47 -10 -72 16 -30 32 -27 40 10 24 19 -9 23 -15 14 -21
-10 -6 -10 -8 0 -8 8 0 16 9 19 20 6 24 12 25 38 6 21 -14 26 -16 51 -16 8 0
12 -4 9 -10 -9 -15 4 -12 21 5 18 17 34 20 34 5 0 -5 -7 -10 -15 -10 -8 0 -15
-5 -15 -11 0 -5 4 -8 9 -5 5 4 12 0 14 -6 3 -8 6 -6 6 5 1 9 8 17 16 17 8 0
15 6 15 13 0 7 8 3 17 -8 11 -14 14 -15 10 -4 -4 13 2 18 24 21 32 5 37 -3 13
-23 -13 -10 -13 -14 -1 -20 17 -10 59 0 51 13 -3 5 -12 4 -20 -3 -8 -6 -18 -9
-22 -5 -4 4 0 11 8 16 8 5 24 16 35 24 19 16 19 16 -10 14 -24 -2 -30 1 -30
16 0 23 -20 32 -31 15 -5 -8 -3 -9 6 -4 10 6 12 4 7 -8 -3 -9 -1 -18 6 -21 9
-3 9 -5 0 -5 -14 -1 -53 38 -53 52 0 5 7 7 15 4 8 -4 17 -2 21 4 3 6 13 8 22
4 8 -3 18 -1 22 4 10 17 62 -3 79 -29 l15 -25 -25 23 c-29 26 -57 29 -66 7 -8
-24 4 -30 22 -11 20 19 29 21 22 3 -3 -8 6 -18 22 -24 35 -14 61 -23 64 -21 8
5 47 -25 47 -37 0 -8 5 -15 11 -15 5 0 7 5 4 10 -3 6 -1 10 4 10 6 0 11 -12
11 -27 l1 -28 12 25 c14 30 43 35 50 9 4 -16 2 -17 -15 -8 -26 14 -35 4 -15
-15 14 -14 18 -14 39 4 19 16 21 21 8 29 -10 7 -4 9 23 8 l38 -2 -25 -22 c-20
-16 -22 -22 -11 -27 8 -3 15 -1 15 4 0 6 7 10 15 10 8 0 15 5 15 10 0 6 5 10
12 10 9 0 9 -3 0 -12 -21 -21 -13 -31 13 -14 28 19 33 13 9 -11 -13 -13 -20
-14 -35 -5 -15 10 -17 9 -12 -4 4 -10 -2 -17 -16 -21 -11 -3 -21 -10 -21 -15
0 -6 7 -7 16 -4 12 4 15 2 10 -9 -3 -8 -3 -15 0 -15 2 0 9 11 14 25 5 14 14
25 20 25 13 0 13 -17 0 -25 -16 -10 -12 -35 5 -29 8 3 17 21 21 40 8 44 23 53
45 26 21 -26 29 -28 29 -6 0 14 3 14 15 4 12 -10 18 -10 30 0 10 8 15 9 15 2
0 -15 -35 -33 -45 -24 -5 4 -6 0 -2 -9 3 -9 1 -21 -5 -27 -8 -8 -7 -16 2 -27
10 -12 10 -19 2 -27 -7 -7 -12 -20 -12 -30 0 -10 -4 -18 -10 -18 -5 0 -1 -9
11 -21 17 -17 23 -18 32 -9 7 7 8 10 2 8 -5 -3 -15 0 -22 7 -9 10 -8 19 3 41
9 16 14 38 11 50 -3 17 0 20 17 17 34 -8 66 -25 60 -34 -3 -5 3 -6 12 -2 13 5
16 3 11 -10 -3 -9 -2 -17 4 -17 5 0 12 6 15 14 6 16 46 17 41 1 -2 -5 -8 -10
-13 -10 -5 0 -18 -6 -29 -13 -18 -11 -17 -12 12 -10 19 1 40 -5 52 -16 12 -11
21 -14 21 -8 0 6 -10 18 -22 26 -12 9 -17 16 -10 16 7 0 10 5 7 10 -3 6 -1 10
5 10 7 0 10 -6 8 -12 -6 -17 14 -37 29 -31 9 4 10 10 3 23 -7 14 -5 19 10 23
11 3 20 0 20 -6 0 -7 5 -6 11 3 9 13 10 13 6 0 -2 -8 -10 -14 -16 -13 -10 3
-16 -17 -12 -39 0 -4 -6 -5 -14 -2 -8 4 -15 1 -15 -5 0 -6 9 -11 21 -11 35 0
15 -24 -25 -31 -31 -5 -36 -3 -31 11 8 24 -25 50 -50 40 -13 -6 -15 -9 -5 -9
13 -1 13 -2 0 -11 -12 -8 -12 -10 4 -16 11 -4 21 -2 26 7 19 30 20 -1 1 -34
-26 -47 -24 -77 6 -77 15 0 27 -8 33 -22 5 -13 9 -17 9 -10 1 9 6 10 20 2 13
-7 21 -7 24 0 3 6 4 5 3 -2 -2 -7 -12 -13 -23 -13 -12 0 -25 -3 -29 -7 -12
-13 -26 -9 -18 5 4 6 -1 5 -12 -4 -10 -9 -25 -14 -33 -11 -11 4 -11 6 0 13 9
6 10 9 2 9 -17 0 -23 -14 -13 -29 5 -9 14 -11 26 -6 24 10 57 6 65 -7 10 -16
39 -1 39 20 0 10 7 27 15 38 13 18 14 17 15 -16 0 -28 -3 -32 -11 -20 -9 12
-10 12 -5 -3 7 -21 -18 -52 -34 -42 -5 3 -10 1 -10 -4 0 -14 37 -14 45 0 4 6
13 8 21 5 8 -3 17 0 20 7 6 16 44 20 45 4 0 -7 5 -3 10 8 l9 20 -3 -20 c-1
-13 -10 -20 -24 -20 -12 0 -25 -4 -30 -9 -4 -5 6 -7 25 -4 21 3 32 0 32 -8 0
-7 8 -10 20 -7 12 3 20 0 20 -7 0 -12 -21 -11 -98 4 -15 3 -22 1 -19 -7 2 -7
10 -12 18 -12 8 0 24 -6 37 -13 13 -8 30 -11 38 -8 22 8 17 -8 -7 -23 -13 -8
-24 -9 -28 -3 -10 15 -71 21 -71 6 0 -12 43 -32 70 -33 36 0 58 -6 54 -13 -8
-13 31 -9 44 4 17 17 15 33 -2 19 -10 -9 -16 -9 -21 -1 -4 6 -15 8 -26 5 -26
-9 -24 0 6 19 22 15 24 15 18 0 -5 -13 -2 -15 13 -10 33 10 47 -7 24 -32 -11
-11 -20 -26 -20 -32 0 -5 -4 -10 -10 -10 -5 0 -10 4 -10 9 0 5 -8 8 -17 7 -10
-2 -24 4 -31 13 -10 13 -12 13 -10 1 3 -16 -39 -19 -82 -6 l-25 8 23 -17 c13
-9 32 -15 43 -12 12 3 27 -3 39 -15 16 -17 22 -19 35 -8 10 8 15 9 15 2 0 -6
8 -9 18 -6 10 4 13 2 7 -3 -5 -4 -17 -17 -25 -27 -14 -18 -13 -19 2 -13 10 3
20 2 23 -3 4 -6 0 -10 -7 -11 -7 -1 -2 -5 12 -9 23 -7 23 -8 3 -9 -20 -1 -53
22 -53 38 0 4 6 13 13 20 10 11 8 12 -12 6 -13 -4 -26 -3 -30 3 -9 14 -71 26
-71 13 0 -5 5 -13 10 -16 6 -3 10 -2 10 4 0 18 28 1 33 -21 5 -17 2 -19 -18
-16 -13 3 -29 2 -36 -3 -7 -4 6 -6 27 -6 25 1 38 6 36 15 -1 6 5 12 13 12 21
0 19 -16 -5 -40 -11 -11 -16 -20 -11 -20 5 0 17 7 25 16 15 14 16 14 16 -1 0
-14 51 -33 73 -27 4 1 7 -2 7 -7 0 -15 -81 -6 -91 10 -7 12 -9 11 -9 -2 0 -20
45 -40 81 -35 15 2 36 -2 48 -9 21 -11 22 -11 3 -28 -11 -10 -23 -17 -28 -15
-5 2 -11 -1 -13 -7 -6 -15 41 -36 64 -29 16 5 14 0 -9 -20 -33 -30 -42 -32
-49 -12 -6 15 -47 18 -47 3 0 -4 -6 -5 -12 -1 -7 4 2 -8 21 -25 33 -32 58 -37
27 -6 -19 20 -19 22 -4 31 6 4 8 3 4 -4 -3 -6 2 -17 12 -24 10 -7 24 -22 30
-34 10 -19 9 -21 -16 -16 -15 3 -23 1 -19 -4 5 -5 12 -8 15 -7 4 0 15 -3 24
-8 24 -13 32 6 14 34 -14 21 -14 23 3 23 13 0 17 -6 14 -21 -3 -13 -2 -16 4
-8 6 8 14 9 23 3 12 -8 11 -10 -5 -10 -19 -1 -19 -1 -2 -14 10 -8 14 -17 8
-20 -5 -3 -11 -1 -13 4 -2 7 -10 6 -22 -3 -18 -13 -17 -14 6 -40 14 -14 29
-23 34 -19 5 4 6 3 2 -2 -12 -15 -59 -14 -54 1 3 7 0 13 -7 13 -14 0 -55 49
-59 71 -2 8 -10 20 -20 29 -18 17 -88 116 -88 126 0 3 -7 12 -15 21 -32 31
-96 134 -90 143 3 6 -1 7 -9 4 -9 -3 -16 -1 -16 5 0 6 6 11 13 12 7 0 6 3 -3
6 -21 9 -34 23 -101 114 -57 76 -59 82 -42 95 17 14 17 14 -3 5 -19 -9 -28 -3
-78 51 -60 66 -65 74 -40 64 9 -3 12 -2 9 5 -4 6 -13 8 -20 5 -8 -3 -33 10
-57 28 -144 110 -301 152 -688 181 -41 4 -97 8 -125 10 -27 3 -120 9 -205 15
-85 5 -173 13 -195 17 -22 4 -43 6 -47 5 -4 -1 0 17 8 41 8 23 17 74 20 112 3
39 7 71 9 73 7 8 45 -20 40 -29 -4 -5 -1 -9 4 -9 6 0 11 6 11 14 0 18 27 29
34 13 2 -7 5 -5 5 4 1 12 -11 18 -44 22 -26 2 -48 6 -50 8 -2 2 -5 33 -6 68
-3 63 -2 65 24 72 16 4 25 3 21 -2 -3 -5 2 -9 10 -9 9 0 16 7 16 17 0 15 2 15
19 -1 11 -10 25 -15 32 -11z m2295 -620 l-7 -45 52 0 52 0 -8 -112 c-6 -94
-14 -231 -15 -260 0 -9 -44 -11 -51 -3 -4 3 24 301 31 330 5 21 -1 35 -14 35
-9 0 -16 -16 -20 -47 -7 -59 -21 -260 -21 -290 1 -20 -4 -23 -37 -23 -45 0
-43 -19 -23 198 14 161 19 187 34 177 5 -2 6 16 3 40 -4 38 -2 45 13 45 15 0
16 -6 11 -45z m-2174 21 c6 -8 8 -8 8 0 0 9 12 9 43 2 23 -5 60 -11 82 -14 22
-2 56 -6 75 -9 19 -3 41 -6 48 -5 14 0 40 0 65 -1 9 0 17 -4 17 -9 0 -5 6 -7
14 -4 7 3 30 -4 50 -15 20 -11 36 -18 36 -14 0 3 8 -1 18 -10 14 -13 21 -14
30 -5 9 9 18 9 37 0 15 -7 24 -16 21 -21 -3 -4 16 -23 42 -42 61 -43 73 -55
64 -64 -4 -5 1 -5 11 -2 11 4 16 3 12 -3 -3 -6 -2 -10 4 -10 34 0 4 37 -64 77
-16 10 -17 12 -3 13 20 0 123 -98 114 -108 -4 -3 -11 0 -16 8 -5 8 -12 11 -16
8 -3 -4 13 -29 37 -57 25 -29 46 -46 50 -40 5 8 9 8 13 0 4 -6 3 -11 -3 -11
-6 0 -8 -7 -4 -16 6 -15 8 -15 21 2 12 15 14 16 9 2 -3 -9 3 -28 14 -42 11
-14 18 -26 14 -26 -3 0 10 -17 30 -37 20 -21 39 -36 42 -35 7 4 23 -19 23 -33
0 -5 -5 -3 -10 5 -7 11 -10 11 -10 2 0 -7 -4 -10 -10 -7 -6 3 -7 -1 -3 -10 3
-9 9 -13 12 -8 12 16 37 7 58 -22 13 -18 18 -34 12 -39 -10 -11 -13 -33 -2
-23 3 4 16 -10 28 -30 12 -21 27 -37 34 -35 9 2 9 -3 0 -19 -6 -12 -7 -19 -1
-15 5 3 15 -1 22 -9 7 -8 9 -15 5 -15 -5 0 0 -9 10 -20 10 -11 22 -17 28 -13
6 3 7 1 3 -6 -4 -6 -2 -19 5 -27 10 -12 9 -13 -7 -8 -18 5 -18 5 -1 -6 9 -6
15 -16 11 -22 -4 -6 4 -5 17 2 19 10 22 10 12 0 -8 -9 -9 -19 -2 -32 6 -11 6
-18 0 -18 -5 0 2 -13 17 -28 15 -15 30 -26 35 -24 4 2 7 -7 7 -18 0 -15 5 -20
15 -17 8 4 17 2 20 -3 3 -5 -5 -11 -17 -13 -21 -4 -20 -4 3 -6 15 0 30 -8 33
-17 5 -14 4 -15 -8 -5 -8 7 -21 9 -27 5 -9 -5 -6 -10 9 -15 12 -5 22 -16 22
-24 0 -9 4 -14 8 -11 4 2 8 -3 9 -12 2 -29 22 -72 33 -72 5 0 10 -6 10 -14 0
-7 6 -19 14 -25 14 -12 51 -83 47 -90 -2 -2 1 -7 7 -10 19 -13 63 -101 59
-118 -4 -15 -5 -14 -6 3 0 11 -12 34 -26 50 -14 16 -25 33 -25 37 0 4 -16 31
-35 60 -19 28 -35 57 -35 64 0 7 -4 13 -10 13 -13 0 -70 100 -70 123 0 9 -6
17 -14 17 -7 0 -17 8 -20 18 -13 36 -37 72 -48 72 -6 0 -8 3 -5 6 4 4 -4 19
-16 33 -12 15 -33 49 -47 76 -14 28 -27 52 -30 55 -6 6 -24 33 -48 74 -9 16
-32 51 -49 78 -18 28 -30 55 -26 61 3 5 2 7 -4 4 -13 -8 -46 50 -37 65 4 7 3
8 -5 4 -6 -4 -14 0 -17 8 -3 9 -11 13 -16 10 -6 -4 -9 -1 -6 6 2 8 -4 22 -15
33 -10 10 -16 25 -13 32 3 9 0 12 -9 9 -8 -4 -24 10 -40 36 -14 22 -32 43 -40
47 -8 3 -15 9 -15 15 0 5 -11 21 -25 36 -14 15 -25 23 -25 19 0 -4 -14 8 -30
27 -17 19 -47 40 -65 46 -19 6 -35 16 -35 22 0 6 -3 9 -6 5 -4 -3 -21 5 -39
19 -18 14 -37 24 -41 22 -13 -3 -54 12 -54 21 0 11 -149 45 -250 57 -25 3 -56
7 -70 8 -14 2 -55 7 -92 11 -37 4 -66 11 -63 14 7 12 69 9 77 -3z m3202 -31
c-17 -12 -13 -12 26 -3 25 5 75 7 115 3 39 -4 85 -7 103 -8 21 0 28 -3 20 -9
-10 -6 -10 -8 2 -9 8 -1 20 -1 26 0 7 1 15 -11 19 -26 4 -16 10 -22 12 -16 6
18 29 -6 31 -32 7 -82 -1 -120 -25 -129 -24 -9 -29 2 -9 17 16 12 17 16 5 35
-22 35 -79 55 -79 27 0 -8 -6 -15 -14 -15 -8 0 -21 -2 -28 -5 -8 -3 -27 6 -42
20 -30 28 -56 33 -56 10 0 -19 -26 -19 -79 0 -47 16 -46 17 -27 -19 18 -36 10
-69 -15 -61 -14 5 -19 1 -19 -12 0 -10 -7 -26 -14 -35 -11 -15 -18 -16 -42 -6
-42 16 -78 63 -65 85 9 16 10 14 11 -9 0 -16 3 -28 8 -28 4 0 7 20 7 44 0 28
-3 39 -8 30 -4 -8 -12 -14 -18 -14 -19 0 41 100 77 127 20 15 41 33 47 39 6 5
19 11 30 11 19 2 19 2 1 -12z m-84 -288 c9 -7 22 -32 30 -56 8 -24 22 -54 32
-66 22 -29 23 -53 2 -77 -19 -20 -27 -159 -11 -192 12 -24 96 -106 108 -106 5
0 12 7 15 15 4 8 12 15 20 15 14 0 19 -39 14 -119 -2 -36 1 -36 67 -15 13 4
14 3 5 -4 -11 -7 -8 -11 10 -15 42 -12 55 -8 33 10 -16 13 -17 15 -2 10 12 -5
17 -1 17 11 0 10 6 24 13 31 10 10 7 16 -13 33 -23 19 -24 20 -3 14 20 -6 22
-3 25 36 2 34 7 43 21 42 9 -1 17 2 17 7 0 5 4 9 9 9 15 0 1 -182 -16 -201
-12 -15 -11 -17 16 -21 31 -4 39 5 47 50 6 36 16 22 10 -15 -6 -41 -6 -41 39
-63 25 -12 45 -26 45 -31 0 -6 5 -7 11 -3 6 3 14 2 18 -4 4 -7 11 -5 18 7 9
14 7 20 -9 30 -18 11 -20 11 -15 -3 5 -13 2 -14 -20 -5 -43 16 -46 21 -19 35
20 10 39 11 84 3 73 -13 86 -21 78 -47 -8 -26 -115 -99 -173 -118 -42 -15
-193 -17 -193 -3 0 12 44 19 54 9 16 -16 51 -11 74 11 13 11 33 22 47 23 13 1
34 10 47 20 l23 17 -25 -7 c-101 -26 -140 -40 -140 -51 0 -7 -5 -13 -11 -13
-5 0 -8 4 -5 9 3 5 -40 9 -97 10 -126 2 -218 11 -212 21 3 5 -16 6 -41 4 -25
-3 -43 -1 -40 4 3 5 -6 7 -20 4 -34 -6 -138 26 -164 50 -31 29 -12 44 76 64
41 9 74 18 74 21 0 2 -6 10 -13 18 -16 15 -15 228 1 371 5 44 7 104 4 132 -5
52 3 102 16 102 4 0 14 -6 22 -13z m-1269 -68 c41 -13 49 -28 49 -96 0 -34 4
-43 18 -43 14 -1 15 -2 2 -9 -24 -13 -160 -23 -160 -11 0 5 7 10 16 10 11 0
14 5 10 16 -3 9 -6 26 -6 38 0 30 -49 55 -65 34 -5 -8 -18 -12 -29 -10 -11 2
-16 0 -12 -7 11 -18 -2 -13 -24 9 -12 12 -26 17 -36 13 -12 -4 -15 -3 -10 5
11 18 43 15 50 -4 6 -16 8 -16 24 0 10 9 28 16 40 16 12 0 22 4 22 8 0 7 54
39 69 41 2 1 21 -4 42 -10z m315 -84 c-4 -10 1 -15 15 -15 11 0 17 5 14 10 -4
6 5 10 21 10 l26 0 -6 -97 -7 -98 22 35 c12 19 28 45 36 58 7 12 22 22 32 22
10 0 23 11 29 25 15 33 61 34 98 2 l27 -24 -19 -33 c-14 -24 -16 -34 -6 -37 6
-3 12 -10 12 -16 0 -6 -8 -3 -17 6 -17 17 -17 19 -1 48 17 29 17 30 -9 42 -21
9 -27 9 -31 -1 -2 -7 -10 -19 -19 -27 -8 -8 -10 -15 -6 -15 5 0 18 -7 29 -16
19 -15 18 -15 -3 -11 -17 4 -26 -2 -36 -21 -7 -15 -50 -93 -95 -173 -45 -81
-82 -149 -82 -152 0 -7 90 17 118 32 13 7 19 17 16 26 -4 8 -2 15 4 15 13 0
22 -24 13 -38 -13 -21 -78 -41 -166 -52 -98 -12 -359 -10 -341 3 6 5 -8 6 -32
4 -23 -3 -40 -2 -38 2 3 4 -18 13 -47 20 -29 8 -62 23 -74 34 -21 19 -22 22
-7 39 9 9 32 20 50 24 32 6 33 7 37 63 3 55 3 54 5 -14 l2 -71 -32 -12 c-28
-10 -30 -14 -18 -26 17 -15 74 -36 101 -36 14 0 16 7 12 43 -3 23 -14 50 -24
60 -11 10 -19 23 -19 29 0 7 7 3 15 -8 14 -17 16 -11 13 76 l-3 95 33 3 c29 3
32 1 33 -25 2 -25 2 -25 6 -4 4 18 10 22 28 18 14 -2 26 1 28 7 9 24 15 -3 22
-94 4 -53 12 -98 19 -102 8 -6 7 -10 -3 -17 -10 -6 -12 -21 -7 -54 7 -44 8
-45 52 -52 62 -9 84 0 84 35 0 16 5 32 10 35 6 4 7 12 3 18 -10 16 -3 60 11
70 8 5 7 9 -2 16 -19 11 -19 15 -3 34 11 14 11 17 0 17 -9 0 -10 3 -2 11 6 6
8 30 5 54 -2 24 -1 82 3 129 l7 86 35 0 c27 0 34 -3 29 -15z m-7208 -886 c-2
-6 -28 -21 -58 -31 -30 -11 -59 -25 -65 -30 -7 -7 -5 -9 5 -5 45 17 122 38
126 35 2 -3 -22 -15 -54 -28 -67 -27 -85 -40 -45 -32 26 5 27 4 13 -13 -14
-17 -14 -17 18 -1 19 10 41 19 50 21 10 2 28 7 42 11 65 18 -7 -12 -243 -100
-142 -54 -270 -98 -285 -99 -15 -1 -29 -4 -32 -7 -3 -3 -45 -18 -93 -34 -48
-16 -99 -35 -113 -42 -14 -8 -67 -28 -117 -45 -51 -17 -98 -34 -104 -36 -8 -3
-14 3 -14 13 -1 16 -2 17 -6 2 -5 -21 -22 -21 -163 7 -99 20 -437 69 -625 92
-33 4 -50 8 -37 11 12 2 22 8 22 13 0 5 -10 10 -22 10 l-23 2 22 4 c14 3 20 9
16 19 -3 7 -9 11 -14 8 -5 -3 -9 1 -9 8 0 10 20 13 83 11 l82 -2 -70 10 c-38
5 -77 11 -85 14 -31 9 168 -7 245 -20 239 -41 423 -66 461 -64 24 2 46 0 50
-3 3 -4 17 -3 30 3 14 5 28 8 32 7 4 -1 14 2 22 5 36 15 147 50 165 53 11 1
21 3 23 4 1 2 5 3 10 5 4 1 21 8 37 15 17 7 53 19 80 26 68 18 162 47 269 84
49 16 97 30 107 30 10 0 21 5 24 10 3 6 15 10 26 10 10 0 19 5 19 11 0 5 4 8
8 5 5 -3 27 2 50 9 23 8 48 12 57 9 8 -3 15 -1 15 4 0 6 9 9 20 7 11 -2 20 0
20 6 0 5 7 9 16 9 9 0 14 -5 12 -11z"/>
<path d="M6089 5890 c-30 -29 -31 -34 -27 -99 3 -54 9 -77 32 -111 27 -40 30
-42 66 -36 22 3 50 1 64 -6 22 -9 29 -8 47 8 12 10 28 32 36 47 13 27 13 31
-6 51 -25 26 -28 82 -6 113 23 33 -8 54 -76 51 -30 -2 -64 1 -77 5 -18 7 -28
2 -53 -23z"/>
<path d="M1240 5088 c0 -13 -11 -167 -25 -343 -14 -176 -31 -388 -37 -472 -7
-84 -9 -155 -5 -159 7 -7 357 -63 400 -64 16 0 27 5 27 14 0 7 4 71 10 142 44
587 63 855 59 858 -5 5 -359 46 -399 46 -24 0 -30 -4 -30 -22z"/>
<path d="M2857 5104 c-4 -4 1 -17 12 -28 10 -12 21 -43 24 -71 3 -27 9 -77 13
-110 6 -55 -1 -75 -10 -28 -6 26 -63 164 -77 183 -13 17 -14 24 21 -85 45
-144 48 -150 81 -162 33 -13 37 -11 98 50 17 17 30 24 33 17 2 -6 20 7 41 29
37 40 35 52 -4 30 -11 -5 -17 -14 -14 -18 2 -5 -3 -15 -12 -22 -15 -12 -16
-12 -10 6 4 11 -8 3 -27 -20 l-35 -40 22 55 c12 30 25 57 28 60 10 8 18 50 9
45 -5 -3 -26 -37 -46 -75 -42 -77 -55 -85 -29 -16 9 24 15 50 13 57 -2 7 -12
-14 -22 -47 -23 -77 -39 -112 -30 -64 11 55 8 87 -9 105 -9 9 -19 37 -23 64
-6 48 -34 98 -47 85z"/>
<path d="M6605 4984 c-85 -9 -184 -36 -205 -56 l-23 -21 27 -14 c14 -7 26 -17
26 -21 0 -4 12 -9 26 -10 15 -1 33 -7 39 -12 7 -6 17 -10 21 -8 5 1 36 -2 68
-6 91 -12 194 -21 346 -31 52 -3 113 -8 135 -11 22 -3 111 -7 199 -10 88 -2
162 -6 164 -9 2 -2 14 0 26 4 11 4 55 5 96 1 41 -4 77 -6 79 -4 2 2 -1 4 -7 4
-7 0 -12 5 -12 10 0 7 6 7 18 2 9 -5 28 -5 42 -1 25 9 25 9 -3 5 -22 -3 -25
-1 -16 10 6 7 9 19 7 26 -3 7 2 19 9 27 8 8 10 17 5 20 -5 3 -11 12 -14 20 -2
8 -11 15 -19 17 -7 1 -50 10 -94 18 -44 9 -111 19 -149 22 -39 3 -73 7 -77 10
-4 2 -11 0 -14 -6 -5 -7 -11 -8 -19 -1 -6 5 -54 10 -106 11 -52 1 -120 3 -150
5 -159 7 -390 12 -425 9z"/>
<path d="M3998 4501 c-124 -32 -201 -101 -352 -314 -170 -238 -439 -647 -432
-654 9 -10 43 32 93 112 20 33 78 119 127 190 50 72 122 177 161 234 38 56 95
133 126 169 32 37 55 70 53 74 -2 3 20 27 48 53 124 112 189 136 388 145 l145
7 -145 1 c-109 1 -162 -4 -212 -17z"/>
<path d="M4700 4470 c311 -39 1508 -160 2310 -235 381 -35 543 -54 624 -71 38
-8 71 -12 73 -10 10 10 -222 49 -382 65 -60 6 -317 31 -570 56 -253 25 -523
51 -600 59 -77 9 -214 22 -305 31 -91 8 -411 40 -712 70 -552 55 -705 68 -438
35z"/>
<path d="M4830 4394 c45 -11 669 -75 1995 -204 226 -23 476 -47 557 -55 238
-24 247 -25 163 -10 -44 8 -242 30 -440 50 -198 20 -468 47 -600 60 -565 58
-1653 165 -1671 164 -12 -1 -14 -3 -4 -5z"/>
<path d="M5255 4325 c11 -4 224 -28 418 -47 70 -6 127 -15 127 -19 0 -10 -39
-18 -45 -9 -6 9 -92 6 -102 -3 -3 -4 -12 -2 -20 4 -9 9 -17 8 -27 0 -12 -10
-14 -8 -10 11 5 21 4 21 -10 -4 -12 -19 -21 -25 -38 -21 -50 11 -52 13 -32 28
25 19 4 19 -23 0 -12 -8 -28 -12 -37 -9 -9 3 -16 2 -16 -4 0 -5 10 -12 22 -16
22 -5 22 -6 3 -20 -11 -9 -24 -15 -30 -16 -5 0 -3 4 5 10 21 13 5 23 -18 11
-11 -6 -28 -8 -36 -5 -9 3 -28 -2 -42 -11 -15 -9 -23 -12 -20 -6 8 12 -6 15
-18 4 -13 -13 -47 -10 -42 4 3 7 1 13 -3 13 -5 0 -12 -6 -14 -12 -4 -10 -6
-10 -6 0 -1 6 -5 12 -11 12 -5 0 -7 -6 -4 -14 4 -9 -2 -13 -20 -11 -23 3 -26
-1 -26 -26 0 -16 -5 -29 -11 -29 -7 0 -8 7 -4 17 4 12 -5 7 -24 -11 -36 -35
-53 -29 -19 5 13 13 19 21 14 17 -6 -5 -17 -8 -25 -8 -13 1 -12 3 3 15 11 9
16 20 12 31 -5 13 -9 14 -21 4 -7 -6 -11 -19 -8 -27 5 -12 2 -15 -10 -10 -9 3
-19 2 -22 -3 -4 -6 3 -10 14 -10 14 0 19 -5 15 -15 -9 -22 -64 -20 -65 3 0 10
-3 12 -6 5 -2 -7 -14 -13 -26 -13 -12 0 -17 -4 -11 -9 8 -8 261 -37 774 -91
107 -11 213 -23 235 -25 195 -22 1812 -191 2032 -213 98 -10 98 -9 -9 94 -162
156 -279 190 -838 244 -113 10 -497 49 -855 85 -357 36 -677 68 -710 71 -33 3
-122 12 -197 20 -133 14 -184 16 -163 9z"/>
<path d="M490 3480 c-171 -35 -384 -109 -399 -139 -9 -16 3 -328 13 -338 9
-10 239 -52 345 -63 164 -18 252 -10 399 39 167 56 262 104 262 133 0 77 -25
305 -34 315 -19 20 -238 53 -441 67 -35 2 -96 -4 -145 -14z m515 -41 c16 0 17
-2 5 -9 -8 -5 -18 -6 -22 -4 -4 3 -8 0 -8 -6 0 -7 8 -9 20 -6 59 17 66 17 38
1 -42 -24 -183 -74 -284 -101 -89 -23 -274 -38 -274 -21 0 4 21 8 48 9 101 4
212 19 212 29 0 15 -50 67 -70 72 -15 4 -20 0 -20 -14 0 -11 -7 -33 -15 -49
-14 -27 -16 -28 -50 -17 -26 8 -34 15 -30 26 3 8 3 12 -1 8 -4 -4 -18 3 -32
15 -13 13 -25 22 -28 21 -10 -7 -24 -2 -24 8 0 8 6 7 18 -2 15 -13 16 -12 3 4
-19 24 -28 21 -34 -10 -10 -47 -20 -55 -50 -44 -15 6 -27 15 -27 21 0 18 63
70 85 70 37 0 66 -12 61 -25 -7 -20 17 -47 37 -39 9 3 14 11 10 17 -4 6 -1 7
6 2 7 -4 22 2 35 14 18 17 34 21 74 20 28 -1 49 -6 46 -11 -4 -5 4 -8 16 -6
14 2 28 -5 37 -19 13 -20 13 -21 -6 -16 -12 3 -24 9 -27 14 -3 5 -12 9 -19 9
-12 0 -12 -6 2 -36 14 -27 22 -34 38 -30 11 3 25 6 31 6 6 0 9 10 7 24 -3 13
0 27 6 30 7 5 11 -3 12 -21 0 -27 1 -27 9 -5 5 12 16 22 24 22 8 0 17 6 19 13
4 9 6 9 6 0 1 -6 -9 -19 -21 -27 l-22 -16 21 0 c21 0 50 35 45 53 -1 4 2 7 8
7 5 0 7 7 3 16 -5 14 -1 16 28 10 19 -4 43 -7 54 -7z"/>
<path d="M60 2853 c0 -24 6 -33 28 -42 15 -6 281 -60 592 -120 821 -160 841
-163 865 -157 37 9 118 46 113 51 -4 4 -384 78 -1173 229 -159 30 -320 58
-357 62 l-68 7 0 -30z"/>
<path d="M2370 2616 c-30 -8 -78 -21 -106 -29 -46 -13 -52 -13 -61 2 -10 15
-17 14 -79 -8 -89 -31 -190 -81 -286 -143 -65 -42 -78 -54 -78 -76 0 -15 4
-32 8 -39 7 -11 685 -147 704 -141 5 2 -148 34 -339 72 -191 38 -352 73 -358
79 -7 6 -3 7 10 4 11 -4 117 -25 235 -47 118 -23 386 -74 595 -115 797 -155
1161 -224 1695 -320 740 -133 1086 -196 1095 -201 32 -14 -157 16 -599 96
-274 50 -503 89 -508 88 -5 -2 58 -16 139 -31 81 -15 328 -61 548 -102 220
-41 416 -75 436 -75 19 0 44 7 55 15 19 15 19 15 -1 9 -36 -11 21 26 149 97
67 36 123 63 124 58 6 -14 22 -10 22 5 0 14 23 28 51 31 16 2 146 73 182 100
10 7 21 31 24 52 l5 39 -158 23 c-286 40 -1001 152 -1199 187 -49 9 -153 27
-230 39 -77 13 -216 37 -310 54 -93 17 -190 34 -214 37 -25 3 -103 16 -175 30
-72 14 -171 31 -221 39 -230 36 -539 88 -630 106 -170 35 -368 69 -420 74 -27
2 -75 -2 -105 -9z m-427 -211 c60 -9 329 -58 457 -85 178 -36 423 -83 548
-106 55 -9 96 -22 99 -30 2 -7 11 -10 19 -7 8 3 27 1 42 -5 42 -17 100 -25 82
-13 -8 6 -10 11 -4 11 5 0 19 -7 30 -15 10 -8 24 -14 29 -15 6 0 3 5 -5 11
-12 9 -11 9 5 4 11 -4 34 -7 50 -7 24 1 26 -1 11 -7 -19 -7 -19 -8 2 -13 12
-4 22 -2 22 3 0 5 5 9 10 9 6 0 10 -7 10 -15 0 -8 14 -17 35 -21 19 -3 35 -10
35 -15 0 -10 -103 -8 -110 2 -3 3 -15 9 -27 13 -18 6 -22 4 -17 -8 3 -8 12
-12 20 -9 8 3 14 0 14 -7 0 -14 -35 -9 -194 26 -61 13 -134 27 -163 30 -29 4
-50 10 -48 15 3 4 0 11 -6 15 -6 3 -14 2 -18 -3 -7 -12 -175 11 -203 27 -10 5
-32 10 -50 10 -62 0 -408 72 -408 85 0 12 -30 21 -92 29 -15 1 -25 -1 -22 -6
3 -4 -4 -8 -14 -8 -11 0 -22 9 -25 20 -5 19 -2 20 34 16 24 -3 37 -1 34 5 -4
5 -16 9 -29 9 -12 0 -28 6 -35 13 -11 10 -13 10 -7 0 4 -7 3 -13 -3 -13 -5 0
-12 6 -15 13 -3 9 -9 7 -19 -5 -15 -18 -33 -25 -23 -9 3 5 -4 12 -17 15 -12 3
-35 18 -52 32 -16 14 -24 23 -17 19 7 -4 23 -8 35 -10z m2538 -475 c35 -6 78
-13 94 -16 162 -26 289 -47 385 -64 63 -11 140 -24 170 -29 159 -27 198 -36
194 -43 -3 -4 7 -8 23 -9 15 0 37 -4 48 -9 20 -8 -66 -6 -110 3 -11 3 -40 8
-65 12 -24 4 -50 15 -57 24 -7 9 -13 11 -13 5 0 -7 -9 -14 -21 -17 -17 -5 -18
-3 -8 9 10 12 8 13 -12 6 -34 -13 -84 -7 -166 21 -40 14 -74 22 -77 19 -3 -2
-12 1 -21 8 -12 10 -15 10 -15 -1 0 -10 -2 -11 -8 -2 -4 7 -38 15 -76 18 -96
9 -116 12 -161 23 -22 6 -69 11 -105 11 -36 -1 -76 4 -90 9 -18 8 -20 11 -7
11 9 1 17 8 17 17 0 8 4 13 8 10 5 -3 37 -10 73 -16z"/>
<path d="M7600 2540 c-22 -6 -651 -389 -754 -459 -23 -15 -113 -71 -201 -123
-88 -53 -207 -125 -265 -160 -58 -35 -160 -95 -227 -132 -68 -37 -123 -70
-123 -72 0 -29 26 -94 39 -98 9 -3 108 -21 221 -40 113 -20 293 -51 400 -71
107 -19 409 -74 670 -120 261 -47 549 -98 640 -114 91 -16 257 -46 370 -65
774 -135 1361 -240 1455 -261 122 -28 392 -76 409 -73 6 0 22 -1 36 -4 158
-37 387 -60 437 -44 12 4 44 37 71 74 67 89 139 182 163 210 10 12 19 26 19
31 0 5 3 11 8 13 4 2 27 30 52 63 25 33 67 87 95 121 27 34 68 87 90 118 22
32 105 144 184 249 185 247 250 342 253 374 2 21 -5 32 -32 49 -19 13 -53 37
-76 53 -77 58 -140 77 -349 111 -228 37 -278 36 -375 -5 -61 -26 -71 -27 -175
-22 -124 6 -415 38 -610 67 -283 42 -1125 161 -1380 195 -148 20 -371 52 -495
71 -441 68 -506 76 -550 64z m1415 -334 c66 -14 166 -40 223 -57 81 -26 102
-36 102 -51 0 -12 -7 -18 -23 -18 -34 0 -155 -62 -217 -111 -30 -24 -114 -103
-186 -175 -144 -144 -202 -181 -322 -205 -84 -16 -242 -7 -358 21 -118 27
-189 69 -222 130 -45 86 -11 171 123 305 101 101 210 167 306 184 30 6 144 8
254 6 167 -3 220 -7 320 -29z m2206 -102 c19 -11 34 -25 34 -31 0 -13 -61 -88
-380 -472 -126 -152 -279 -337 -340 -410 -60 -73 -120 -137 -132 -142 -13 -5
-51 -11 -86 -15 -98 -10 -237 33 -237 73 0 13 96 122 275 313 28 30 117 129
197 220 194 221 321 356 331 352 5 -1 6 2 2 8 -8 12 96 120 116 120 9 -1 8 -5
-6 -16 -11 -8 -18 -16 -15 -17 3 -1 -8 -18 -24 -37 -15 -19 -25 -29 -21 -22 3
6 2 12 -4 12 -6 0 -15 -9 -21 -20 -6 -11 -8 -20 -4 -20 12 0 -49 -65 -73 -78
-13 -7 -21 -18 -17 -23 3 -6 -14 -32 -38 -57 -24 -26 -66 -74 -94 -107 -27
-33 -52 -62 -57 -63 -4 -2 -12 -13 -18 -25 -14 -28 46 34 136 138 137 160 172
193 214 205 34 9 45 8 66 -6 14 -9 23 -19 20 -22 -3 -3 -13 2 -23 11 -10 10
-25 17 -33 17 -8 -1 -2 -7 12 -15 44 -24 44 -44 2 -89 -21 -22 -43 -44 -50
-48 -6 -5 -14 -26 -18 -48 -8 -46 -43 -93 -83 -112 -15 -8 -28 -23 -30 -36 -2
-12 -8 -19 -14 -16 -10 6 -45 -35 -40 -48 1 -5 -2 -8 -8 -8 -5 0 -10 -6 -10
-13 0 -19 -120 -162 -135 -161 -8 1 -13 -6 -12 -16 1 -17 -60 -97 -75 -99 -4
-1 -10 8 -13 20 -8 25 -61 59 -92 59 -27 0 -73 -20 -73 -32 0 -5 -4 -7 -9 -4
-5 3 -26 -14 -47 -38 -89 -100 -140 -160 -147 -173 -12 -19 2 -31 13 -13 8 13
10 12 10 -2 0 -22 23 -23 39 -4 10 11 8 17 -6 26 -16 10 -16 11 -1 6 11 -3 22
2 28 14 12 23 50 27 50 6 0 -13 23 -24 60 -30 8 -2 25 -6 36 -10 24 -7 22 -9
256 259 63 72 154 180 203 240 48 61 127 149 174 197 47 48 81 91 77 95 -4 4
-11 1 -16 -8 -5 -9 -18 -27 -29 -40 -18 -20 -22 -22 -31 -9 -14 21 -14 22 27
74 l36 46 -23 25 c-17 18 -21 28 -13 36 7 7 14 6 24 -4 8 -7 30 -19 49 -26 34
-12 36 -11 72 31 21 24 38 49 38 56 0 23 -69 44 -137 40 -34 -2 -63 1 -63 6 0
5 38 7 83 4 59 -3 94 -10 118 -24z"/>
<path d="M0 1250 c0 -495 1 -529 17 -534 16 -5 229 -62 673 -182 91 -24 248
-67 350 -95 421 -115 849 -231 1020 -274 80 -21 153 -42 163 -47 13 -6 17 -21
17 -57 0 -49 9 -61 47 -61 13 0 15 9 11 50 -4 34 -1 50 6 50 22 0 36 -24 36
-62 l0 -38 2898 1 c1593 1 2886 4 2872 6 -14 2 -192 38 -395 78 -875 175
-2532 526 -3845 815 -151 33 -345 76 -430 95 -166 36 -1132 252 -1495 334
-585 132 -1906 437 -1932 446 -10 3 -13 -106 -13 -525z"/>
<path d="M57 635 c-13 -9 -17 -20 -12 -34 4 -12 2 -21 -4 -21 -6 0 -11 6 -11
13 0 9 -3 8 -9 -2 -7 -11 -9 -11 -14 0 -3 8 -6 0 -6 -18 -1 -17 5 -34 12 -36
9 -4 9 -6 0 -6 -10 -1 -13 -61 -13 -266 l0 -265 1040 0 c598 0 1040 4 1040 9
0 5 -6 12 -12 14 -10 4 -10 6 0 6 7 1 20 -6 28 -14 9 -8 21 -15 27 -14 9 0 8
2 0 6 -7 2 -13 14 -13 25 0 17 -5 20 -30 16 -35 -5 -35 -5 -13 18 16 16 16 16
-6 9 -19 -6 -23 -4 -18 8 6 15 -10 37 -27 37 -6 0 -5 -4 3 -9 11 -7 11 -13 -3
-32 -9 -13 -16 -18 -16 -11 0 6 -7 12 -15 12 -18 0 -20 27 -2 33 6 2 8 8 4 13
-4 5 -12 2 -18 -6 -8 -13 -12 -12 -24 4 -15 19 -15 19 -15 -2 0 -12 5 -22 11
-22 6 0 4 -7 -5 -15 -21 -21 -24 -19 -20 16 3 26 1 30 -13 25 -9 -4 -19 -2
-23 4 -9 14 -90 24 -90 10 0 -5 -4 -10 -10 -10 -15 0 -12 30 3 31 6 1 -4 5
-23 9 -38 9 -59 3 -39 -12 10 -7 6 -8 -13 -5 -15 2 -29 -1 -32 -7 -2 -6 -5 0
-6 14 -1 23 -2 23 -10 5 -8 -19 -9 -19 -11 3 -1 12 -3 27 -4 32 -1 6 -3 16 -4
23 -1 9 -3 9 -9 -1 -5 -7 -19 -11 -32 -10 -12 2 -25 -3 -27 -10 -3 -8 1 -10
14 -5 17 6 17 6 1 -10 -9 -9 -22 -17 -28 -17 -6 0 -8 -5 -5 -10 3 -6 2 -10 -3
-10 -6 0 -13 8 -16 17 -6 15 -8 15 -16 3 -6 -9 -10 -10 -10 -3 0 6 4 14 10 18
15 9 0 35 -20 35 -23 0 -29 -9 -32 -48 -2 -26 -5 -29 -20 -21 -10 5 -18 20
-18 33 0 19 -4 23 -20 19 -11 -3 -26 0 -34 6 -8 7 -16 8 -18 4 -3 -4 -3 -2 -2
4 2 8 -6 13 -19 13 -20 1 -21 1 -4 11 14 8 22 8 30 0 15 -15 27 -14 27 4 0 15
-17 20 -54 16 -10 0 -24 3 -31 9 -7 6 -20 8 -29 4 -9 -3 -16 -1 -16 5 0 6 -4
11 -10 11 -5 0 -10 -7 -10 -15 0 -8 -7 -15 -16 -15 -10 0 -14 6 -10 15 5 15
-14 20 -57 17 -14 -2 -17 3 -12 17 5 16 2 18 -15 14 -11 -3 -20 -9 -20 -14 0
-5 -7 -9 -16 -9 -14 0 -15 2 -3 16 12 15 11 16 -8 10 -16 -5 -23 -2 -26 11 -4
17 -5 17 -6 1 0 -10 -8 -18 -17 -18 -10 0 -14 6 -10 15 4 11 -1 15 -19 15 -15
0 -25 6 -25 14 0 7 -9 16 -21 19 -15 4 -23 0 -26 -14 -3 -10 -12 -19 -20 -19
-12 0 -13 3 -4 14 9 11 6 14 -14 14 -15 0 -25 -6 -25 -15 0 -11 -5 -13 -17 -8
-10 4 -26 10 -35 12 -10 3 -18 10 -18 15 0 5 10 6 23 2 12 -3 19 -3 15 1 -4 5
-3 14 3 22 9 10 8 13 -4 13 -8 0 -17 -5 -19 -11 -6 -18 -36 1 -43 28 -6 24 -7
25 -20 7 -8 -11 -15 -27 -15 -38 0 -15 3 -16 15 -6 9 7 15 8 15 2 0 -8 -22
-22 -36 -22 -2 0 -4 9 -4 20 0 20 -16 28 -22 11 -1 -5 -12 -3 -22 5 -19 13
-18 14 8 14 25 0 27 2 15 16 -8 10 -15 12 -17 5 -2 -6 -13 -11 -23 -11 -11 0
-17 -4 -14 -10 3 -6 -5 -10 -19 -10 -18 0 -24 -4 -20 -15 4 -8 1 -15 -5 -15
-6 0 -11 13 -11 29 0 37 -24 59 -45 41 -16 -13 -18 -9 -16 25 2 17 0 18 -9 5
-8 -13 -11 -13 -19 -1 -5 7 -14 10 -21 6 -9 -6 -9 -3 -1 14 14 25 9 27 -12 6
-13 -13 -20 -13 -48 -1 -21 9 -27 15 -18 19 8 3 0 6 -18 6 -17 1 -33 -4 -35
-10 -2 -5 -11 -7 -21 -4 -9 4 -14 11 -11 16 3 5 0 8 -8 7 -7 -2 -16 -10 -20
-18 -5 -12 -7 -12 -7 2 -1 12 -6 15 -17 11 -14 -5 -15 -3 -5 16 13 24 7 41
-14 41 -7 0 -16 6 -18 13 -3 6 -4 -5 -3 -25 1 -21 -1 -38 -6 -38 -4 0 -8 6 -8
14 0 15 -59 50 -68 41 -3 -3 0 -5 6 -5 7 0 12 -4 12 -9 0 -8 -23 -8 -92 1 -10
1 -18 6 -18 11 0 5 13 7 28 4 15 -3 34 -2 42 4 13 7 13 9 0 10 -8 1 -19 3 -25
4 -5 2 -16 3 -23 4 -7 0 -10 6 -7 11 8 13 4 12 -18 -5z"/>
</g>
</svg>
